<svg width="431" height="334" viewBox="0 0 431 334" fill="none" xmlns="http://www.w3.org/2000/svg">
<path d="M175.028 121.452C161.675 133.663 165.014 154.415 156.377 169.352C153.965 173.524 150.917 177.387 149.319 181.935C145.957 191.5 152.507 200.303 161.937 202.111C171.153 203.877 181.635 200.83 189.768 196.532C208.243 186.771 214.611 163.558 216.967 144.268C217.849 137.045 217.428 129.391 213.94 123.006C206.135 108.719 187.255 111.503 176.335 120.329C175.882 120.695 175.447 121.069 175.028 121.452Z" fill="#F4F7FD"/>
<path d="M101.356 178.711C100.706 179.568 100.174 180.534 99.7906 181.609C92.5461 201.92 133.207 198.032 122.333 179.529C117.943 172.059 106.281 172.218 101.356 178.711Z" fill="#F4F7FD"/>
<path d="M53.621 305.532H379.26C381.336 289.719 380.015 274.947 377.232 259.243C375.857 251.48 373.873 243.768 370.478 236.655C366.701 228.743 361.248 221.728 355.153 215.433C340.983 200.799 322.865 189.718 302.979 185.384C283.092 181.05 261.465 183.777 244.047 194.322C222.001 207.668 206.261 233.029 180.856 237.297C171.065 238.942 161.065 237.109 151.295 235.346C135.874 232.564 120.012 229.949 104.634 232.959C89.0935 236 74.7756 244.933 65.1974 257.564C55.6194 270.196 52.3776 289.719 53.621 305.532Z" fill="#F4F7FD"/>
<path d="M106.016 166.553L104.116 166.838L98.6223 165.132C98.4723 165.086 98.3175 165.189 98.3031 165.346C98.2721 165.684 98.4305 166.012 98.7149 166.198L100.277 167.216L95.2946 167.125C94.5539 167.078 93.9442 167.701 94.0041 168.442L94.1266 169.958C94.1672 170.46 94.512 170.886 94.9946 171.03L98.4719 172.063C98.7001 172.131 98.9431 172.13 99.1709 172.061L104.921 170.321L106.525 170.215L106.016 166.553Z" fill="#FFC0B1"/>
<path d="M101.017 169.793C100.987 169.793 100.956 169.782 100.933 169.76C100.067 168.942 100.15 167.28 100.154 167.21C100.158 167.142 100.216 167.09 100.283 167.094C100.351 167.098 100.403 167.156 100.399 167.223C100.398 167.239 100.319 168.842 101.101 169.581C101.15 169.628 101.152 169.706 101.106 169.755C101.082 169.781 101.049 169.793 101.017 169.793Z" fill="#102A54"/>
<path d="M153.589 130.221L158.235 130.826C159.501 130.99 160.473 132.031 160.55 133.306C160.641 134.818 160.799 136.776 161.047 138.041C161.263 139.147 161.353 140.485 160.935 141.63C160.116 143.877 157.7 145.146 155.422 144.43C153.377 143.788 150.071 140.634 150.386 132.916C150.454 131.252 151.94 130.007 153.589 130.221Z" fill="#FFC0B1"/>
<path d="M151.656 149.779C150.155 149.561 149.157 148.108 149.49 146.625L151.488 137.74L155.13 138.269L154.629 147.342C154.545 148.871 153.169 149.999 151.656 149.779Z" fill="#FFC0B1"/>
<path d="M156.833 138.553C156.773 138.553 156.72 138.508 156.712 138.446C156.703 138.379 156.751 138.317 156.818 138.309L157.884 138.172C157.976 138.16 158.056 138.107 158.102 138.026C158.149 137.946 158.155 137.85 158.119 137.765L156.766 134.537C156.74 134.475 156.769 134.403 156.831 134.377C156.894 134.351 156.966 134.38 156.992 134.442L158.345 137.669C158.411 137.827 158.4 138.001 158.315 138.149C158.23 138.297 158.084 138.394 157.916 138.415L156.849 138.552C156.844 138.553 156.838 138.553 156.833 138.553Z" fill="#102A54"/>
<path d="M155.517 135.017C155.559 135.341 155.33 135.638 155.006 135.68C154.682 135.721 154.386 135.492 154.345 135.167C154.303 134.843 154.532 134.546 154.856 134.505C155.18 134.463 155.476 134.693 155.517 135.017Z" fill="#102A54"/>
<path d="M159.685 134.365C159.727 134.689 159.498 134.986 159.174 135.027C158.85 135.069 158.554 134.839 158.513 134.515C158.471 134.191 158.7 133.894 159.024 133.853C159.348 133.811 159.644 134.04 159.685 134.365Z" fill="#102A54"/>
<path d="M155.552 134.137L153.141 134.447C152.963 134.47 152.801 134.344 152.778 134.166C152.755 133.988 152.881 133.825 153.058 133.802L155.47 133.493C155.647 133.47 155.81 133.596 155.833 133.774C155.855 133.952 155.73 134.115 155.552 134.137Z" fill="#102A54"/>
<path d="M160.193 133.417L157.782 133.726C157.604 133.749 157.442 133.623 157.419 133.445C157.396 133.267 157.522 133.104 157.699 133.082L160.11 132.772C160.288 132.749 160.45 132.875 160.473 133.053C160.496 133.231 160.37 133.394 160.193 133.417Z" fill="#102A54"/>
<path d="M155.535 139.154C155.535 139.154 157.12 139.898 158.825 139.808C158.825 139.808 156.962 141.925 155.535 139.154Z" fill="white"/>
<path d="M157.851 139.9C157.847 139.9 157.843 139.9 157.839 139.899C156.389 139.767 155.37 139.146 155.328 139.12C155.27 139.084 155.252 139.009 155.288 138.951C155.323 138.893 155.399 138.875 155.456 138.911C155.466 138.917 156.471 139.528 157.862 139.655C157.929 139.661 157.979 139.721 157.973 139.788C157.967 139.852 157.913 139.9 157.851 139.9Z" fill="#102A54"/>
<path d="M151.824 127.782C151.824 127.782 154.178 124.313 157.202 125.977C160.227 127.641 164.101 130.906 164.101 130.906C164.101 130.906 161.523 133.116 160.549 133.306C159.575 133.496 152.571 130.991 152.571 130.991L150.683 137.537C150.683 137.537 147.78 132.418 148.145 130.425C148.51 128.432 151.824 127.782 151.824 127.782Z" fill="#102A54"/>
<path d="M151.909 136.891C152.191 138.069 151.86 139.157 151.17 139.322C150.481 139.488 149.694 138.667 149.413 137.49C149.131 136.312 149.462 135.224 150.152 135.058C150.841 134.893 151.628 135.714 151.909 136.891Z" fill="#FFC0B1"/>
<path d="M154.801 144.351C154.785 144.351 154.768 144.348 154.753 144.341C154.701 144.319 153.469 143.779 152.652 142.191C152.621 142.13 152.645 142.056 152.705 142.025C152.766 141.994 152.839 142.018 152.87 142.078C153.644 143.584 154.837 144.11 154.849 144.116C154.911 144.142 154.94 144.215 154.913 144.277C154.893 144.323 154.848 144.351 154.801 144.351Z" fill="#102A54"/>
<path d="M151.234 138.094C151.232 138.094 151.23 138.094 151.228 138.094C151.16 138.091 151.108 138.033 151.111 137.965C151.173 136.683 150.103 135.587 150.092 135.576C150.044 135.528 150.045 135.45 150.093 135.403C150.141 135.355 150.219 135.355 150.266 135.403C150.313 135.451 151.423 136.588 151.356 137.977C151.353 138.043 151.299 138.094 151.234 138.094Z" fill="#102A54"/>
<path d="M196.459 161.618L175.065 160.543C174.584 160.504 174.121 160.347 173.715 160.086L154.566 147.784L154.571 147.807L150.474 146.631L144.727 186.355L160.311 189.923C160.311 189.923 162.018 175.14 161.817 164.832L169.979 167.759C171.828 168.422 173.801 168.663 175.755 168.466L196.513 166.366L196.459 161.618Z" fill="#3C94F8"/>
<path d="M190.951 242.612L194.21 240.932L195.712 241.715L201.469 241.04C202.24 240.949 202.985 241.347 203.34 242.039L192.723 247.513C192.202 247.781 191.569 247.494 191.426 246.926L190.951 242.612Z" fill="#102A54"/>
<path d="M192.347 238.594L194.21 240.932L190.951 242.612L188.943 240.438L192.347 238.594Z" fill="#FFC0B1"/>
<path d="M115.998 238.412L117.988 241.496L117.358 243.07L118.596 248.742C118.762 249.502 118.44 250.284 117.788 250.706L111.304 240.661C110.987 240.169 111.209 239.509 111.759 239.31L115.998 238.412Z" fill="#102A54"/>
<path d="M120.127 239.408L117.988 241.496L115.998 238.413L117.959 236.197L120.127 239.408Z" fill="#FFC0B1"/>
<path d="M135.489 184.332L136.498 212.662L116.307 236.449L120.623 240.333L144.715 221.541C146.468 220.174 147.847 218.384 148.724 216.339C149.202 215.225 149.524 214.049 149.681 212.846L153.075 186.885L135.489 184.332Z" fill="#102A54"/>
<path d="M157.933 186.173L176.938 208.139L194.353 238.336L187.54 242.413L168.647 215.704L145.623 198.721C145.623 198.721 134.629 196.735 136.319 182.367L157.933 186.173Z" fill="#102A54"/>
<path d="M151.01 202.693L151.698 194.818C151.698 194.818 158.451 208.182 158.321 208.086C158.192 207.991 151.01 202.693 151.01 202.693Z" fill="#0C203F"/>
<path d="M149.522 146.346C149.522 146.346 153.004 147.962 154.575 147.787C154.575 147.787 158.484 153.62 159.471 159.573C160.672 166.823 157.934 186.173 157.934 186.173L139.385 183.879L149.522 146.346Z" fill="white"/>
<path d="M154.575 147.787C154.396 147.79 149.174 146.25 149.174 146.25C149.174 146.25 152.08 149.278 153.146 149.292C154.212 149.307 154.575 147.787 154.575 147.787Z" fill="#80C0FF"/>
<path d="M152.055 148.24C150.552 145.903 147.301 145.455 145.248 147.325C145.176 147.39 145.106 147.458 145.035 147.526L127.679 159.833C127.147 160.211 126.553 160.493 125.924 160.667L104.664 165.576L105.657 170.767L128.283 168.815C129.673 168.662 131.034 168.304 132.321 167.754L137.728 165.444C137.122 168.511 136.865 170.683 136.865 170.683L128.956 187.14L149.291 194.21C149.291 194.21 153.388 172.394 154.695 164.875C155.611 159.61 154.488 152.024 152.055 148.24Z" fill="#3C94F8"/>
<path d="M137.728 165.566C137.683 165.566 137.64 165.541 137.619 165.499C137.588 165.438 137.612 165.364 137.673 165.334L147.001 160.625C147.062 160.594 147.136 160.618 147.166 160.679C147.196 160.739 147.172 160.813 147.112 160.844L137.783 165.553C137.765 165.562 137.747 165.566 137.728 165.566Z" fill="#102A54"/>
<path d="M149.05 182.325L140.824 179.43L140.525 180.237L148.714 183.185L149.05 182.325Z" fill="#102A54"/>
<path d="M154.21 147.684C154.21 147.684 157.133 162.285 147.505 171.614L146.848 176.159L151.2 173.9C151.2 173.9 160.744 161.428 154.575 147.787L154.21 147.684Z" fill="#102A54"/>
<path d="M161.817 164.954C161.817 164.954 161.817 164.954 161.817 164.954C161.749 164.954 161.694 164.899 161.695 164.831C161.695 164.782 161.705 159.924 160.643 157.213C160.619 157.15 160.65 157.078 160.713 157.053C160.775 157.029 160.847 157.06 160.871 157.123C161.95 159.878 161.94 164.783 161.94 164.832C161.939 164.9 161.885 164.954 161.817 164.954Z" fill="#102A54"/>
<path d="M207.543 173.595L197.638 171.11C197.224 171.006 196.972 170.586 197.076 170.171L200.719 155.596C200.823 155.181 201.242 154.929 201.656 155.033L211.561 157.518C211.975 157.621 212.226 158.042 212.123 158.456L208.48 173.032C208.376 173.446 207.957 173.698 207.543 173.595Z" fill="#80C0FF"/>
<path d="M210.887 158.773L201.555 156.432L198.233 169.72L207.566 172.06L210.887 158.773Z" fill="white"/>
<path d="M209.867 159.707L202.018 157.738L201.851 158.405L209.7 160.373L209.867 159.707Z" fill="#F4F7FD"/>
<path d="M209.507 161.143L201.658 159.174L201.492 159.84L209.341 161.809L209.507 161.143Z" fill="#F4F7FD"/>
<path d="M209.148 162.58L201.299 160.611L201.132 161.278L208.981 163.246L209.148 162.58Z" fill="#F4F7FD"/>
<path d="M208.789 164.016L200.939 162.047L200.773 162.713L208.622 164.682L208.789 164.016Z" fill="#F4F7FD"/>
<path d="M208.431 165.451L200.582 163.482L200.415 164.149L208.265 166.118L208.431 165.451Z" fill="#F4F7FD"/>
<path d="M208.072 166.889L200.223 164.92L200.056 165.586L207.905 167.555L208.072 166.889Z" fill="#F4F7FD"/>
<path d="M207.712 168.324L199.863 166.355L199.697 167.022L207.546 168.991L207.712 168.324Z" fill="#F4F7FD"/>
<path d="M207.353 169.76L199.504 167.791L199.337 168.457L207.187 170.426L207.353 169.76Z" fill="#F4F7FD"/>
<path d="M207.864 158.372L204.516 157.532C204.423 157.509 204.367 157.415 204.39 157.322L204.881 155.358C204.904 155.265 204.998 155.208 205.091 155.232L208.439 156.072C208.532 156.095 208.588 156.189 208.565 156.282L208.074 158.246C208.051 158.339 207.957 158.395 207.864 158.372Z" fill="#0C203F"/>
<path d="M196.465 162.153L198.896 161.25C199.188 161.142 199.509 161.14 199.802 161.245L203.061 162.413C203.252 162.481 203.295 162.731 203.139 162.86L202.931 163.031C202.75 163.18 202.524 163.266 202.289 163.274L198.769 163.402L198.044 166.302L196.504 165.61L196.465 162.153Z" fill="#FFC0B1"/>
<path d="M76.6476 191.299C77.5017 190.869 78.4875 190.794 79.4436 190.789C80.3029 190.785 81.1714 190.834 81.997 191.073C82.8225 191.312 83.6086 191.755 84.142 192.43C84.8411 193.315 85.0385 194.495 85.0752 195.623C85.1119 196.75 85.0129 197.891 85.2203 199C85.4183 200.06 85.8937 201.08 85.8714 202.158C85.845 203.43 85.1356 204.569 84.647 205.744C84.0603 207.154 83.7787 208.691 83.8268 210.219C83.0663 209.826 82.1969 209.648 81.3438 209.71C80.8096 209.749 80.2705 209.879 79.7449 209.776C79.1789 209.665 78.7033 209.298 78.2085 209.002C77.7136 208.705 77.1195 208.466 76.5701 208.642C76.048 207.284 76.0386 205.723 76.0872 204.269C76.1407 202.669 76.1946 201.066 76.4213 199.482C76.5161 198.82 76.6409 198.161 76.7087 197.496C76.7863 196.735 76.789 195.968 76.7862 195.203C76.7814 193.9 76.6834 192.601 76.6476 191.299Z" fill="#102A54"/>
<path d="M88.75 247.299L88.3291 250.711C88.2639 251.24 87.7213 251.568 87.2237 251.38L81.9453 249.378V247.299H88.75Z" fill="#FFB841"/>
<path d="M69.1798 247.578L105.59 247.06C106.488 247.047 107.205 246.308 107.192 245.409L106.858 221.827C106.845 220.928 106.107 220.21 105.21 220.223L68.7992 220.741C67.9018 220.754 67.1847 221.493 67.1974 222.392L67.5318 245.973C67.5446 246.872 68.2824 247.591 69.1798 247.578Z" fill="#80C0FF"/>
<path d="M87.1351 233.315C86.4673 233.315 85.7992 233.13 85.2111 232.758L67.4449 221.509C67.4002 221.481 67.387 221.422 67.4152 221.377C67.4436 221.333 67.5026 221.32 67.5471 221.348L85.3133 232.596C86.4553 233.318 87.9176 233.298 89.0388 232.543L106.479 220.794C106.523 220.764 106.582 220.776 106.612 220.82C106.641 220.864 106.629 220.923 106.585 220.953L89.1453 232.702C88.5387 233.11 87.8372 233.315 87.1351 233.315Z" fill="#102A54"/>
<path d="M59.2832 239.168L65.1449 213.131C65.5176 210.757 67.7408 209.135 70.1104 209.509L80.6999 211.177C82.2382 211.419 83.4593 212.444 84.0254 213.781L84.0255 213.78L87.6041 220.473L83.8679 220.526L81.6 242.685L59.2832 239.168Z" fill="white"/>
<path d="M71.2618 209.592C70.905 211.864 72.4634 213.939 74.732 214.297C77.0006 214.654 79.1201 213.159 79.4769 210.886L71.2618 209.592Z" fill="#FFC0B1"/>
<path d="M75.0633 212.802C76.4613 213.023 77.7503 212.003 77.8611 210.59L78.5254 202.122L75.1349 201.588L73.0848 209.81C72.7394 211.196 73.6547 212.581 75.0633 212.802Z" fill="#FFC0B1"/>
<path d="M73.1958 193.367L83.9212 195.057L83.7271 195.709C83.0561 197.965 82.5917 200.278 82.3815 202.622C82.281 203.744 81.9941 205.053 81.2735 206.035C79.86 207.962 77.1882 208.503 75.2013 207.178C73.1986 205.843 70.3471 202.199 73.1958 193.367Z" fill="#FFC0B1"/>
<path d="M79.0534 202.34C79.027 202.34 79.0003 202.338 78.9737 202.334L77.9833 202.178C77.9209 202.168 77.8783 202.11 77.8881 202.047C77.8981 201.985 77.9566 201.941 78.0189 201.952L79.0093 202.108C79.0947 202.121 79.1798 202.095 79.2424 202.034C79.305 201.974 79.3351 201.89 79.3253 201.804L78.9539 198.561C78.9468 198.498 78.9917 198.442 79.0545 198.434C79.1175 198.427 79.1738 198.472 79.181 198.535L79.5524 201.778C79.5704 201.936 79.5151 202.09 79.4007 202.2C79.3055 202.291 79.1821 202.34 79.0534 202.34Z" fill="#102A54"/>
<path d="M77.7113 198.665C77.664 198.967 77.3818 199.173 77.081 199.125C76.7802 199.078 76.5747 198.795 76.622 198.494C76.6693 198.193 76.9515 197.987 77.2523 198.034C77.553 198.081 77.7585 198.364 77.7113 198.665Z" fill="#102A54"/>
<path d="M81.6136 199.169C81.5663 199.471 81.2841 199.677 80.9833 199.629C80.6826 199.582 80.4771 199.299 80.5243 198.998C80.5716 198.696 80.8538 198.491 81.1546 198.538C81.4554 198.585 81.6609 198.868 81.6136 199.169Z" fill="#102A54"/>
<path d="M75.9643 197.854C75.881 197.854 75.798 197.82 75.738 197.753C75.6258 197.628 75.6361 197.435 75.761 197.323C76.8595 196.335 78.2712 197.221 78.3307 197.26C78.472 197.35 78.5131 197.539 78.4225 197.68C78.3321 197.822 78.1447 197.863 78.0034 197.773C77.959 197.745 76.9193 197.099 76.1671 197.776C76.1091 197.828 76.0364 197.854 75.9643 197.854Z" fill="#102A54"/>
<path d="M79.9544 198.2C79.8711 198.2 79.7881 198.166 79.7282 198.099C79.616 197.974 79.6264 197.781 79.7512 197.669C80.8497 196.68 82.2615 197.567 82.3211 197.605C82.4624 197.696 82.5035 197.884 82.4129 198.026C82.3224 198.167 82.1351 198.208 81.9938 198.118C81.9497 198.09 80.9097 197.444 80.1574 198.122C80.0992 198.174 80.0267 198.2 79.9544 198.2Z" fill="#102A54"/>
<path d="M77.5327 203.344C77.5327 203.344 78.8794 203.973 80.024 203.393C80.024 203.393 80.2064 204.799 78.8027 204.689C77.399 204.578 77.5327 203.344 77.5327 203.344Z" fill="white"/>
<path d="M78.5091 204.76C78.4987 204.76 78.488 204.758 78.4776 204.755C77.3165 204.422 77.4176 203.342 77.4187 203.331L77.4347 203.18L77.5757 203.238C79.0526 203.844 79.954 203.301 79.963 203.295C80.0164 203.262 80.087 203.278 80.1204 203.332C80.1538 203.385 80.1378 203.456 80.0846 203.489C80.0458 203.514 79.145 204.065 77.647 203.511C77.6687 203.781 77.8063 204.324 78.5406 204.535C78.6012 204.553 78.6363 204.616 78.6189 204.677C78.6045 204.727 78.5587 204.76 78.5091 204.76Z" fill="#102A54"/>
<path d="M75.4156 214.552C75.214 214.552 75.0034 214.542 74.7826 214.52C74.7198 214.514 74.674 214.458 74.6803 214.395C74.6865 214.332 74.7421 214.286 74.8052 214.292C78.846 214.696 79.4033 211.131 79.4252 210.979C79.434 210.917 79.4913 210.873 79.5544 210.882C79.6168 210.891 79.6603 210.949 79.6514 211.011C79.6461 211.049 79.1039 214.552 75.4156 214.552Z" fill="#102A54"/>
<path d="M89.2447 263.616C88.7085 260.198 81.5996 242.686 81.5996 242.686L73.0127 241.333L59.2828 239.17C55.7846 241.475 54.5844 262.828 54.5844 262.828L39.0156 293.534L44.4711 295.808C44.4711 295.808 64.9637 267.702 66.1725 264.778C66.7257 263.44 68.2053 258.416 69.6474 253.36C73.386 260.524 78.7804 266.044 78.7804 266.044L78.0016 298.016H83.8676C83.8676 298.016 89.7808 267.033 89.2447 263.616Z" fill="#102A54"/>
<path d="M69.6465 253.36L70.3981 248.166L74.9336 261.52C74.9336 261.52 70.667 256.018 69.6465 253.36Z" fill="#0C203F"/>
<path d="M82.1836 211.699L83.8685 220.526H89.28C89.28 220.526 85.7299 212.646 82.1836 211.699Z" fill="#FFB841"/>
<path d="M73.0129 231.652C72.6504 230.54 69.677 209.32 69.677 209.32C69.677 209.32 65.2849 209.592 62.587 213.867C60.1384 217.747 52.7422 248.165 52.7422 248.165C52.7422 248.165 64.1867 246.9 65.4174 246.167C65.8117 245.932 66.3908 242.064 66.9956 236.915C67.3887 237.447 67.8667 237.918 68.4185 238.306C69.2263 238.874 70.1573 239.24 71.1346 239.376L88.2201 241.745L89.2792 237.745C89.2792 237.745 73.3754 232.764 73.0129 231.652Z" fill="#FFB841"/>
<path d="M89.2024 238.037L89.669 238.19C89.8474 238.249 90.0383 238.255 90.22 238.207C90.9186 238.026 92.4459 237.377 92.6831 237.463C92.9788 237.571 95.2055 238.871 95.0161 239.51C94.9472 239.743 93.8667 241.914 93.0605 241.968C92.2543 242.022 90.5077 242.129 90.1852 241.968C89.8627 241.806 88.3516 241.25 88.3516 241.25L89.2024 238.037Z" fill="#FFC0B1"/>
<path d="M94.7911 240.086H94.082C94.0292 240.086 93.9863 240.043 93.9863 239.99C93.9863 239.937 94.029 239.895 94.082 239.895H94.7911C94.8439 239.895 94.8868 239.937 94.8868 239.99C94.8868 240.043 94.8439 240.086 94.7911 240.086Z" fill="#102A54"/>
<path d="M94.2794 240.811H93.5702C93.5175 240.811 93.4746 240.768 93.4746 240.715C93.4746 240.662 93.5175 240.619 93.5702 240.619H94.2794C94.3322 240.619 94.375 240.662 94.375 240.715C94.3749 240.768 94.3322 240.811 94.2794 240.811Z" fill="#102A54"/>
<path d="M93.7481 241.537H93.039C92.9862 241.537 92.9434 241.494 92.9434 241.441C92.9434 241.389 92.9861 241.346 93.039 241.346H93.7481C93.8008 241.346 93.8437 241.389 93.8437 241.441C93.8437 241.494 93.8008 241.537 93.7481 241.537Z" fill="#102A54"/>
<path d="M66.9955 237.011C66.9664 237.011 66.9378 236.998 66.919 236.973C66.9065 236.956 65.6562 235.271 64.8854 232.9C64.1182 230.539 62.6442 224.131 62.6294 224.067C62.6176 224.015 62.6496 223.964 62.7011 223.952C62.7524 223.94 62.8038 223.972 62.8157 224.024C62.8305 224.088 64.3026 230.488 65.0672 232.84C65.8282 235.182 67.0596 236.841 67.072 236.858C67.1036 236.9 67.0952 236.96 67.0528 236.992C67.0356 237.005 67.0155 237.011 66.9955 237.011Z" fill="#102A54"/>
<path d="M80.0359 194.446C79.6775 195.084 79.0132 195.54 78.2899 195.645C77.6161 195.743 76.9016 195.555 76.2625 195.79C75.5053 196.069 75.0684 196.864 74.8331 197.637C74.5978 198.41 74.4898 199.236 74.0811 199.933C73.7423 200.51 73.2064 200.98 73.005 201.619C72.8439 202.13 72.9193 202.683 73.0255 203.208C73.1589 203.868 73.3386 204.519 73.5629 205.154C73.7364 205.645 73.9372 206.13 74.0387 206.641C74.1951 207.428 74.1045 208.263 73.7829 208.999C73.1157 208.476 72.3029 208.143 71.4616 208.046C70.8775 207.978 70.2648 208.019 69.7265 207.782C68.8999 207.418 68.4729 206.51 68.1659 205.659C68.0547 205.351 67.9473 205.035 67.7553 204.77C67.3918 204.268 66.7853 204.019 66.2556 203.697C65.7259 203.376 65.208 202.867 65.244 202.248C65.2478 202.184 65.2575 202.118 65.2695 202.053C65.401 201.343 65.7432 200.69 66.2314 200.159C66.7656 199.578 67.3365 199.019 67.8344 198.432C68.8558 197.226 69.4981 195.753 70.3247 194.406C71.1514 193.06 72.259 191.77 73.7672 191.304C74.1711 191.179 74.5924 191.118 75.0142 191.09C75.4387 191.062 75.8699 191.069 76.2827 191.172C77.3536 191.441 78.1535 192.309 78.8867 193.136C79.3032 193.605 79.6194 193.976 80.0359 194.446Z" fill="#102A54"/>
<path d="M79.8044 193.771C79.7935 194.463 79.8202 195.247 80.3337 195.71C80.5064 195.865 80.7193 195.968 80.9305 196.064C81.4888 196.32 82.0885 196.572 82.445 197.073C82.7147 197.451 82.8085 197.923 82.9596 198.362C83.1107 198.802 83.3596 199.254 83.7902 199.428C84.5823 198.378 84.8031 197.006 84.8277 195.691C84.8391 195.081 84.8207 194.449 84.5635 193.896C84.2667 193.258 83.6827 192.797 83.0623 192.466C82.7231 192.285 82.3619 192.134 81.9809 192.085C80.9583 191.953 79.8208 192.739 79.8044 193.771Z" fill="#102A54"/>
<path d="M77.3107 208.074C76.6586 208.074 75.7751 207.926 75.1207 207.259C75.0764 207.214 75.0771 207.142 75.1221 207.097C75.1671 207.053 75.2395 207.054 75.2838 207.099C76.3387 208.174 78.1229 207.764 78.1408 207.76C78.2027 207.745 78.2638 207.783 78.2785 207.845C78.2932 207.906 78.2554 207.968 78.194 207.983C78.1603 207.99 77.8008 208.074 77.3107 208.074Z" fill="#102A54"/>
<path d="M79.0453 299.812L82.7061 299.994L83.6145 301.425L88.9346 303.729C89.6468 304.038 90.0934 304.756 90.0551 305.533L78.1281 304.943C77.5439 304.914 77.1387 304.348 77.2989 303.784L79.0453 299.812Z" fill="#102A54"/>
<path d="M82.9199 298.016L82.7064 299.994L79.0456 299.813L79.0352 298.016H82.9199Z" fill="#FFC0B1"/>
<path d="M39.1211 295.611L42.551 296.906L42.9785 298.547L47.3395 302.371C47.9233 302.884 48.1289 303.705 47.8553 304.432L36.6806 300.215C36.1332 300.008 35.9203 299.345 36.245 298.857L39.1211 295.611Z" fill="#102A54"/>
<path d="M43.3584 295.344L42.551 296.906L39.1211 295.611L39.7686 293.848L43.3584 295.344Z" fill="#FFC0B1"/>
<path d="M416.073 306.199H13.6657C13.2981 306.199 13 305.9 13 305.532C13 305.164 13.2981 304.865 13.6657 304.865H416.073C416.441 304.865 416.739 305.164 416.739 305.532C416.739 305.9 416.441 306.199 416.073 306.199Z" fill="#102A54"/>
<path d="M97.6211 273.391L108.526 273.326L119.431 273.289L141.241 273.258L163.05 273.288L173.955 273.326L184.86 273.391L173.955 273.456L163.05 273.494L141.241 273.524L119.431 273.493L108.526 273.456L97.6211 273.391Z" fill="#102A54"/>
<path d="M144.789 233.828L158.898 233.764L173.007 233.726L201.225 233.695L229.443 233.726L243.552 233.763L257.661 233.828L243.552 233.894L229.443 233.931L201.225 233.962L173.007 233.931L158.898 233.893L144.789 233.828Z" fill="#102A54"/>
<path d="M99.3412 265.729L89.2855 265.794L79.2296 265.831L59.1179 265.862L39.0063 265.832L28.9504 265.794L18.8945 265.729L28.9504 265.664L39.0063 265.626L59.1179 265.596L79.2296 265.627L89.2855 265.664L99.3412 265.729Z" fill="#102A54"/>
<path d="M199.999 212.334L189.944 212.399L179.888 212.437L159.776 212.468L139.664 212.437L129.609 212.4L119.553 212.334L129.609 212.269L139.664 212.232L159.776 212.201L179.888 212.232L189.944 212.27L199.999 212.334Z" fill="#102A54"/>
<path d="M47.6184 90.2982C50.9592 94.0125 54.7073 94.2253 61.0784 96.4823C70.6435 99.8708 82.8191 110.014 76.8957 121.503C74.514 126.122 69.4047 128.734 64.3297 129.822C54.0348 132.03 42.8902 128.893 35.2307 121.661C28.6912 115.487 24.8604 106.473 25.0039 97.4623C25.0039 97.4606 25.0039 97.459 25.004 97.4573C25.0957 91.8459 27.9688 82.3667 33.2755 79.483C39.6384 76.026 42.215 81.2957 44.8316 86.1811C45.7613 87.9172 46.6735 89.2477 47.6184 90.2982Z" fill="#F4F7FD"/>
<path d="M79.7684 47.6219C70.846 59.2106 63.7572 77.3059 73.3931 90.5984C79.2958 98.741 90.8813 103.291 100.137 98.0248C107.441 93.8687 110.338 85.6528 114.758 79.0011C119.621 71.6845 125.681 67.9554 133.879 65.0856C144.223 61.4643 161.734 52.3937 152.601 38.6029C150.708 35.7433 147.894 33.6125 144.933 31.8861C127.081 21.4762 104.277 25.6486 88.7089 38.3286C85.5993 40.8615 82.5303 44.0349 79.7684 47.6219Z" fill="#F4F7FD"/>
<path d="M95.6762 119.863L98.749 120.991L99.1441 122.453L103.069 125.832C103.594 126.285 103.784 127.016 103.546 127.668L93.5345 123.993C93.0441 123.813 92.8488 123.222 93.1347 122.785L95.6762 119.863Z" fill="#102A54"/>
<path d="M99.629 118.338L98.7486 120.992L95.6758 119.864L96.2093 117.57L99.629 118.338Z" fill="#FFC0B1"/>
<path d="M53.3454 135.338L56.006 137.247L55.9971 138.761L58.8784 143.067C59.2642 143.644 59.2524 144.4 58.849 144.964L50.1808 138.745C49.7562 138.44 49.7252 137.819 50.1175 137.474L53.3454 135.338Z" fill="#102A54"/>
<path d="M57.5621 134.924L56.0063 137.246L53.3457 135.337L54.4713 133.27L57.5621 134.924Z" fill="#FFC0B1"/>
<path d="M85.0374 85.0171C85.6435 84.805 108.41 83.5539 111.843 86.5324C115.276 89.511 100.463 119.305 100.463 119.305L95.0391 118.339L102.086 94.2334C102.086 94.2334 83.2946 102.297 77.5126 99.8859C71.7307 97.4753 73.1762 85.0171 73.1762 85.0171H85.0374Z" fill="#0C203F"/>
<path d="M73.1756 85.0176L69.0322 108.627L53.6172 133.45L57.6812 135.695C57.6812 135.695 75.2739 115.691 77.1198 114.052C78.9658 112.412 89.8582 87.4699 89.8582 87.4699L73.1756 85.0176Z" fill="#102A54"/>
<path d="M69.2023 61.0996L62.0029 64.1347C61.4527 64.3666 60.9193 64.6368 60.4068 64.9433L44.2539 74.5994L45.6537 77.6042L63.4096 70.2804C63.7139 70.1549 64.0248 70.0457 64.3407 69.9533L70.6886 68.0976L69.2023 61.0996Z" fill="#FFC0B1"/>
<path d="M44.2537 74.6C44.2537 74.6 41.37 74.9727 41.1771 75.3854C40.9841 75.7981 40.2344 78.1903 40.2344 78.4509C40.2344 78.7115 42.0985 80.3183 42.7922 80.2315C43.0369 80.2008 43.5218 79.8411 44.0467 79.3891C44.3359 79.4408 44.5809 79.4614 44.7106 79.4263C45.1983 79.2943 46.1081 77.4175 46.1081 77.4175C46.1081 77.4175 44.9108 74.5038 44.2537 74.6Z" fill="#FFC0B1"/>
<path d="M44.047 79.5186C44.0383 79.5186 44.0295 79.5176 44.0205 79.5159C42.1001 79.1167 42.0269 79.0434 41.9957 79.012C41.9654 78.9818 41.9342 78.9262 41.9572 78.8335C42.0097 78.6214 42.4272 78.0783 42.768 77.9732C43.0535 77.8853 43.9044 77.9311 44.2729 77.9561C44.2395 77.689 44.1892 77.1508 44.2661 76.773C43.9056 76.6672 42.8651 76.3405 42.4634 75.9827C42.4099 75.935 42.4051 75.853 42.4526 75.7995C42.5001 75.7459 42.582 75.741 42.6355 75.7887C43.0696 76.1752 44.4438 76.554 44.4577 76.5576C44.492 76.567 44.521 76.5902 44.5378 76.6216C44.5546 76.6531 44.5578 76.6901 44.5465 76.7239C44.4044 77.151 44.5501 78.0674 44.5516 78.0765C44.5578 78.1159 44.5458 78.156 44.5189 78.1852C44.4919 78.2145 44.4525 78.2294 44.4133 78.2267C44.0632 78.1987 43.0987 78.1429 42.8445 78.2214C42.6274 78.2883 42.3175 78.6668 42.2309 78.8387C42.5075 78.9236 43.4278 79.1274 44.0734 79.2615C44.1435 79.2762 44.1886 79.3448 44.174 79.415C44.1611 79.4764 44.1072 79.5186 44.047 79.5186Z" fill="#102A54"/>
<path d="M84.2864 57.4202C83.1008 57.4202 82.1664 56.4084 82.2582 55.2243L82.8089 48.1289H85.6845L86.3128 55.2017C86.4186 56.3938 85.4811 57.4202 84.2864 57.4202Z" fill="#FFC0B1"/>
<path d="M82.2777 42.2129H91.3745L91.2986 42.7781C91.0363 44.7322 90.9527 46.7079 91.0833 48.6752C91.1458 49.6165 91.0786 50.7378 90.6098 51.6446C89.6902 53.4233 87.5492 54.2197 85.7326 53.3825C83.9015 52.5386 81.0677 49.8941 82.2777 42.2129Z" fill="#FFC0B1"/>
<path d="M88.2249 48.88H87.3848C87.3319 48.88 87.2891 48.8371 87.2891 48.7841C87.2891 48.7311 87.3319 48.6882 87.3848 48.6882H88.2249C88.2974 48.6882 88.3643 48.655 88.4083 48.5972C88.4523 48.5393 88.4663 48.4658 88.4469 48.3957L87.7181 45.7601C87.704 45.7091 87.7339 45.6562 87.7849 45.642C87.8358 45.6283 87.8886 45.6579 87.9027 45.7089L88.6316 48.3446C88.667 48.4728 88.6411 48.6074 88.5607 48.7133C88.4802 48.8193 88.3578 48.88 88.2249 48.88Z" fill="#102A54"/>
<path d="M86.7032 46.0077C86.7032 46.2632 86.4963 46.4704 86.2412 46.4704C85.9861 46.4704 85.7793 46.2632 85.7793 46.0077C85.7793 45.7521 85.9861 45.5449 86.2412 45.5449C86.4965 45.5449 86.7032 45.7521 86.7032 46.0077Z" fill="#102A54"/>
<path d="M89.9981 45.9159C89.9981 46.1714 89.7913 46.3786 89.5362 46.3786C89.2811 46.3786 89.0742 46.1714 89.0742 45.9159C89.0742 45.6603 89.2811 45.4531 89.5362 45.4531C89.7913 45.4531 89.9981 45.6602 89.9981 45.9159Z" fill="#102A54"/>
<path d="M86.1672 53.645C86.1574 53.645 86.1474 53.6435 86.1375 53.6402C86.0832 53.6225 84.7991 53.1939 83.9115 52.1483C83.8772 52.1079 83.8821 52.0474 83.9224 52.0131C83.9627 51.9787 84.0232 51.9837 84.0574 52.0241C84.9091 53.0273 86.1843 53.4537 86.197 53.458C86.2472 53.4745 86.2747 53.5286 86.2583 53.579C86.245 53.6193 86.2074 53.645 86.1672 53.645Z" fill="#102A54"/>
<path d="M88.9501 50.1306C88.8784 50.1162 87.358 50.2312 86.4402 49.168C86.4402 49.168 86.3792 50.4755 87.3851 50.7485C88.3907 51.0215 88.9501 50.1306 88.9501 50.1306Z" fill="white"/>
<path d="M88.0202 50.1405C88.0173 50.1405 88.0142 50.1404 88.0113 50.1401C87.0532 50.0511 86.3933 49.2628 86.3657 49.2294C86.332 49.1885 86.3378 49.1282 86.3784 49.0943C86.4193 49.0605 86.4796 49.0662 86.5132 49.1071C86.5195 49.1147 87.1516 49.8676 88.0289 49.949C88.0816 49.9539 88.1204 50.0007 88.1155 50.0534C88.1109 50.1032 88.0692 50.1405 88.0202 50.1405Z" fill="#102A54"/>
<path d="M95.3232 41.2422C95.2846 41.1375 95.2396 41.0348 95.1888 40.9354C94.7777 40.1309 94.0112 39.5455 93.1704 39.2484C92.718 39.0886 92.2417 38.9983 91.7637 38.9652C91.5255 38.9487 91.2863 38.9468 91.0478 38.9592C90.9499 38.9642 90.4084 39.0854 90.3539 39.0368C89.5511 38.3211 88.3075 38.2217 87.234 38.2732C86.8365 38.2923 86.4224 38.3388 86.0887 38.5561C86.0499 38.5813 86.0131 38.6086 85.978 38.6375C84.2276 38.0072 83.4861 39.9958 82.0316 40.3053C81.5794 40.4016 81.11 40.2834 80.6484 40.3096C80.0456 40.3437 79.462 40.6368 79.074 41.1001C78.6738 41.5781 78.4914 42.2017 78.141 42.7175C77.5399 43.6024 76.536 44.0785 75.7992 44.8287C74.1303 46.5285 74.4755 49.5828 75.6426 51.4576C76.4095 52.6894 77.7145 53.6103 79.1557 53.7622C80.5969 53.914 82.1323 53.2251 82.8541 51.9663C83.7034 50.4851 83.3392 48.6413 83.4528 46.9369C83.5073 46.1204 83.7213 45.2399 84.3686 44.7407C85.1014 44.1756 86.1401 44.2769 87.0021 43.9416C87.2958 43.8273 87.5655 43.6568 87.8021 43.4483C88.1771 43.7742 88.5789 44.0637 89.025 44.2819C90.0126 44.7648 91.1557 44.882 92.2363 44.7321C93.1881 44.6001 94.4847 44.2536 95.1028 43.4588C95.5786 42.8468 95.5802 41.9382 95.3232 41.2422Z" fill="#102A54"/>
<path d="M120.541 45.0611L118.746 44.3509C118.151 44.1154 117.487 44.4676 117.347 45.0928L116.54 48.6929L110.111 63.1543L101.952 61.2859L100.271 68.1687L111.228 69.432C111.684 69.4847 112.146 69.439 112.583 69.2982C113.631 68.9606 114.435 68.1101 114.714 67.0429L119.21 49.8681L120.912 47.4204L121.2 46.0316C121.199 45.6034 120.938 45.2185 120.541 45.0611Z" fill="#FFC0B1"/>
<path d="M120.149 48.4112C120.142 48.4112 120.134 48.4105 120.127 48.4087C120.076 48.3971 120.043 48.3457 120.055 48.294L120.38 46.8633C120.399 46.7786 120.467 46.7184 120.553 46.7099C120.639 46.7017 120.718 46.7473 120.753 46.8265L121 47.3815C121.022 47.43 121 47.4867 120.952 47.5082C120.903 47.5297 120.847 47.5079 120.825 47.4596L120.578 46.9046L120.242 48.3364C120.232 48.3811 120.192 48.4112 120.149 48.4112Z" fill="#102A54"/>
<path d="M111.534 66.1406C111.486 66.1406 111.44 66.1141 111.417 66.0681L109.994 63.2132C109.962 63.1484 109.988 63.0697 110.053 63.0373C110.118 63.0049 110.196 63.0313 110.229 63.0961L111.651 65.951C111.684 66.0158 111.657 66.0945 111.593 66.1269C111.574 66.1362 111.554 66.1406 111.534 66.1406Z" fill="#102A54"/>
<path d="M89.8654 56.4149C89.8654 56.4149 84.196 54.1697 82.2538 54.9278C82.2264 54.9385 82.1994 54.9495 82.1735 54.9614L67.6973 61.0158L69.527 69.3705L78.1702 67.7525C77.9816 68.6374 77.8175 69.4875 77.6888 70.2698C77.2597 72.8821 76.4119 75.4069 75.1772 77.7478L69.9354 87.6851C68.985 92.5441 89.752 92.0069 89.752 92.0069C93.6821 88.1481 94.6651 68.9735 94.6651 68.9735L103.499 69.4605L105.124 61.3666L89.8654 56.4149Z" fill="#E6515C"/>
<path d="M78.1701 67.8844C78.1606 67.8844 78.1509 67.8834 78.1412 67.8812C78.0707 67.8653 78.0264 67.7951 78.0423 67.7245C78.0555 67.6655 79.3806 61.7776 80.3694 58.8317C80.3925 58.7631 80.4668 58.7258 80.5353 58.7492C80.6038 58.7723 80.6406 58.8466 80.6175 58.9152C79.6329 61.8483 78.3109 67.723 78.2976 67.7819C78.284 67.8429 78.23 67.8844 78.1701 67.8844Z" fill="#102A54"/>
<path d="M95.6593 69.1424C95.6569 69.1424 95.6545 69.1424 95.6521 69.1422L90.95 68.887C90.8778 68.8831 90.8224 68.8213 90.8264 68.749C90.8302 68.6766 90.8929 68.6214 90.9641 68.6252L95.6662 68.8804C95.7384 68.8843 95.7937 68.946 95.7898 69.0183C95.7861 69.0883 95.7284 69.1424 95.6593 69.1424Z" fill="#102A54"/>
<path d="M46.8242 104.639C48.6311 104.609 50.438 104.596 52.2448 104.574L57.6654 104.537C61.2792 104.515 64.8929 104.517 68.5067 104.506L79.348 104.536L84.7686 104.574C86.5755 104.596 88.3824 104.609 90.1892 104.639C88.3823 104.669 86.5754 104.682 84.7686 104.705L79.348 104.742L68.5067 104.772C64.8929 104.761 61.2792 104.763 57.6654 104.741L52.2448 104.704C50.4379 104.682 48.6311 104.669 46.8242 104.639Z" fill="#102A54"/>
<path d="M81.127 79.932L87.8242 79.8671L94.5215 79.8299L107.916 79.7988L121.311 79.8294L128.008 79.8667L134.705 79.932L128.008 79.9974L121.311 80.0347L107.916 80.0653L94.5215 80.0342L87.8242 79.9971L81.127 79.932Z" fill="#102A54"/>
<path d="M40.416 88.1019C41.8449 88.0719 43.2737 88.0589 44.7027 88.037L48.9892 87.9999C51.8469 87.9779 54.7047 87.9799 57.5624 87.9688C60.4201 87.9792 63.2779 87.9781 66.1356 87.9994L70.4222 88.0366C71.8512 88.0588 73.28 88.0718 74.7088 88.1021C73.28 88.1323 71.851 88.1453 70.4222 88.1675L66.1356 88.2047C63.2779 88.226 60.4201 88.2249 57.5624 88.2354C54.7047 88.2242 51.8469 88.2263 48.9892 88.2043L44.7027 88.1671C43.2737 88.145 41.8449 88.1321 40.416 88.1019Z" fill="#102A54"/>
<path d="M405.398 172.871C419.145 94.8413 404.026 26.9429 371.629 21.2154C339.233 15.4879 301.826 74.1001 288.08 152.129C274.333 230.159 289.452 298.057 321.849 303.785C354.245 309.512 391.651 250.9 405.398 172.871Z" fill="#102A54"/>
<path d="M394.968 171.025C408.715 92.9956 393.596 25.0972 361.199 19.3697C328.803 13.6422 291.397 72.2544 277.65 150.284C263.904 228.313 279.022 296.211 311.419 301.939C343.815 307.666 381.222 249.054 394.968 171.025Z" fill="#E6515C"/>
<path d="M367.339 165.887C375.729 118.26 366.501 76.8165 346.728 73.3206C326.954 69.8247 304.122 105.6 295.731 153.227C287.341 200.854 296.569 242.297 316.343 245.793C336.117 249.289 358.949 213.513 367.339 165.887Z" fill="white"/>
<path d="M344.752 161.565C348.883 138.112 344.339 117.705 334.602 115.983C324.865 114.262 313.622 131.878 309.491 155.331C305.359 178.783 309.903 199.19 319.64 200.912C329.377 202.633 340.62 185.017 344.752 161.565Z" fill="#E6515C"/>
<path d="M327.452 157.808C327.434 157.808 327.416 157.807 327.397 157.806L216.796 146.934C216.491 146.904 216.268 146.632 216.298 146.326C216.328 146.02 216.6 145.796 216.904 145.827L327.505 156.699C327.81 156.729 328.034 157.001 328.004 157.306C327.976 157.594 327.734 157.808 327.452 157.808Z" fill="#102A54"/>
<path d="M220.167 140.077L224.088 146.808L218.831 152.552L193.408 149.819L198.666 144.075L194.745 137.344L220.167 140.077Z" fill="#102A54"/>
<path d="M326.804 148.733C326.756 148.733 326.708 148.725 326.66 148.71L237.321 119.807C237.075 119.728 236.939 119.463 237.019 119.216C237.098 118.969 237.362 118.834 237.609 118.913L326.948 147.816C327.195 147.896 327.33 148.16 327.25 148.407C327.186 148.606 327.002 148.733 326.804 148.733Z" fill="#102A54"/>
<path d="M241.334 114.757L243.362 121.019L237.991 124.813L217.498 117.976L222.869 114.182L220.841 107.92L241.334 114.757Z" fill="#102A54"/>
<path d="M217.185 179.426C216.915 179.426 216.678 179.227 216.637 178.951C216.592 178.648 216.801 178.365 217.104 178.32L327.029 161.954C327.331 161.908 327.615 162.118 327.66 162.422C327.705 162.725 327.496 163.008 327.192 163.053L217.267 179.419C217.24 179.423 217.213 179.426 217.185 179.426Z" fill="#102A54"/>
<path d="M215.259 172.967L220.79 178.447L217.201 185.362L191.942 189.333L195.531 182.419L190 176.938L215.259 172.967Z" fill="#102A54"/>
<path d="M344.925 305.532C344.925 305.532 387.8 282.71 392.628 259.052C392.628 259.052 368.732 269.833 345.723 289.76C345.723 289.76 366.942 273.702 366.942 248.164C366.942 248.164 340.869 270.12 330.633 287.826C330.633 287.826 333.337 264.506 327.35 253.046C327.35 253.046 317.114 269.639 319.432 291.695C319.432 291.695 308.848 279.893 293.572 274.67C293.572 274.67 297.801 293.823 309.968 298.66C309.968 298.66 295.87 293.049 281.771 293.823C281.771 293.823 286.681 305.532 298.767 305.532C301.084 305.532 344.925 305.532 344.925 305.532Z" fill="#6CB597"/>
<path d="M319.534 305.532C319.534 305.532 314.509 302.855 310.447 291.909C310.447 291.909 320.109 295.162 324.249 298.72C324.249 298.72 330.115 290.296 338.972 283.152C338.972 283.152 341.617 293.061 335.521 300.205C335.521 300.205 346.465 294.541 365.147 292.534C365.147 292.534 358.065 303.253 347.483 305.531L319.534 305.532Z" fill="#102A54"/>
</svg>
