<svg width="430" height="335" viewBox="0 0 430 335" fill="none" xmlns="http://www.w3.org/2000/svg">
<path d="M394.975 282.402L380.522 312.999H7V301.72L43.5372 230.272L25.9314 219.412L40.8489 157.229L35.1403 147.544L148.87 142.262L162.339 160.208L153.958 197.069L124.895 209.732L135.075 220.155L187.317 236.54L179.739 273.779L193.161 301.527L217.094 283.938L222.064 235.454L231.255 231.623L230.763 201.567L255.129 199.578L224.301 189.323L217.094 148.023L311.523 148.14L325.669 150.083L328.151 153.96L318.715 162.713L308.771 169.892L326.167 187.972L351.01 192.047L394.975 282.402Z" fill="#155263"/>
<path opacity="0.28" d="M187.316 236.542L74.4883 223.733L135.076 220.158L187.316 236.542Z" fill="black"/>
<path opacity="0.28" d="M179.736 273.781L107.896 270.066L183.859 282.302L179.736 273.781Z" fill="black"/>
<path d="M162.337 160.207L35.1387 147.547L156.031 141L162.337 160.207Z" fill="#447582"/>
<path d="M230.766 201.571L255.132 199.58L296.708 196.35L230.938 212.116L230.766 201.571Z" fill="#447582"/>
<path d="M217.094 148.027C218.54 148.027 328.15 153.965 328.15 153.965L325.668 150.087L311.732 148.027H217.094Z" fill="#447582"/>
<path d="M217.094 283.937L351.01 291.807L218.215 273L217.094 283.937Z" fill="#447582"/>
<path opacity="0.28" d="M308.771 169.895L304.324 179.989L326.168 187.975L308.771 169.895Z" fill="black"/>
<path d="M254.806 50.6348L259.351 84.5717L153.161 98.7922C149.808 99.2413 146.068 92.0084 144.813 82.6375C143.558 73.2665 145.263 65.3045 148.616 64.8553L254.806 50.6348Z" fill="#155263"/>
<path d="M218.162 55.543C217.699 57.5328 217.417 59.7171 217.296 62.0081L144.746 71.7237C145.351 67.7677 146.72 65.1102 148.617 64.8561L218.162 55.543Z" fill="#447582"/>
<path d="M227.255 50.0687L227.255 50.0688C223.077 50.6311 220.959 60.552 222.523 72.2304C224.087 83.9088 228.741 92.9229 232.919 92.3662C232.919 92.3662 232.919 92.3663 232.92 92.3662L324.775 80.0652L319.111 37.7676L227.255 50.0687Z" fill="#155263"/>
<path d="M410.606 22.7852L416.989 70.4488L325.134 82.7497C320.424 83.3804 315.179 73.2224 313.416 60.0596C311.654 46.8968 314.041 35.7166 318.751 35.086L410.606 22.7852Z" fill="#155263"/>
<path d="M417.002 70.4683C420.315 70.0247 421.573 58.9947 419.81 45.8321C418.048 32.6695 413.934 22.3587 410.62 22.8023C407.307 23.2459 406.05 34.2759 407.812 47.4384C409.574 60.601 413.688 70.9118 417.002 70.4683Z" fill="#155263"/>
<path d="M416.526 66.9928C414.892 64.8157 412.111 58.0345 410.639 47.0404C409.167 36.0464 410.065 28.7723 411.068 26.2422C412.702 28.4194 415.483 35.2005 416.955 46.1946C418.427 57.1886 417.529 64.4627 416.526 66.9928Z" fill="#DBE6EC"/>
<path opacity="0.28" d="M408.522 51.9835L314.186 64.6164C313.885 63.1487 313.625 61.6263 313.415 60.0608C312.183 50.8627 312.977 42.6334 315.176 38.2969L309.718 39.0277C307.82 44.8695 307.634 52.8824 308.68 60.6947C308.885 62.2247 309.139 63.7498 309.438 65.2524L223.312 76.7859C222.998 75.3274 222.73 73.8055 222.519 72.233C221.589 65.2854 221.963 58.9601 223.296 54.8552L218.16 55.5429C216.998 60.5407 216.968 66.775 217.784 72.8671C217.989 74.3986 218.249 75.9241 218.56 77.4221L145.648 87.1862C147.322 94.2397 150.373 99.1683 153.16 98.7951L227.841 88.7942C229.455 91.2513 231.225 92.5951 232.917 92.3686L320.84 80.5943C322.246 82.1507 323.711 82.9409 325.132 82.7508L416.987 70.4498C414.067 70.8409 410.525 62.8842 408.522 51.9835Z" fill="black"/>
<path d="M410.604 22.7852C408.962 23.0049 407.827 25.824 407.312 30.2113L313.68 42.7502C314.652 38.3015 316.416 35.3985 318.749 35.086L410.604 22.7852Z" fill="#447582"/>
<path d="M309.717 39.0273C308.953 41.3822 308.464 44.0888 308.226 46.9931L222.457 58.479C223.219 53.6344 224.914 50.387 227.253 50.0706L309.717 39.0273Z" fill="#447582"/>
<path d="M282.517 83.2896H249.09L252.056 57.9672C252.544 53.7871 256.086 50.6367 260.294 50.6367H271.313C275.52 50.6367 279.063 53.7871 279.554 57.9672L282.517 83.2896Z" fill="#155263"/>
<path opacity="0.28" d="M272.625 68.593C273.525 64.8218 271.197 61.0355 267.425 60.136C263.654 59.2365 259.868 61.5645 258.968 65.3357C258.069 69.1069 260.397 72.8932 264.168 73.7927C267.939 74.6922 271.726 72.3642 272.625 68.593Z" fill="black"/>
<path d="M232.575 144.039L226.908 144.463L220.43 149.999H230.955H240.945L259.002 83.2891H249.09L232.575 144.039Z" fill="#155263"/>
<path d="M304.702 144.463L299.032 144.039L282.517 83.2891H272.66L290.662 149.999H290.665H300.652H311.18L304.702 144.463Z" fill="#155263"/>
<path d="M286.515 98.1785L274.169 89.0241L272.658 83.291H282.515L286.515 98.1785Z" fill="#103E4A"/>
<path d="M248.279 86.2716L256.537 92.3933L259.001 83.291H249.089L248.279 86.2716Z" fill="#103E4A"/>
<path d="M84.0625 149.23C84.1081 149.081 84.1106 148.855 84.0698 148.69C83.9333 148.137 83.2766 147.744 82.6036 147.714C82.0512 147.69 81.5734 147.644 81.0923 147.48C79.6784 147.068 78.3418 146.569 77.5121 145.186C73.8687 146.81 72.4343 146.078 71.2801 145.556C71.2801 145.556 71.2751 145.575 71.2715 145.59C71.1402 146.082 70.931 147.489 71.0441 148.52L71.0984 148.883L71.0447 148.52C75.7429 148.658 75.6373 148.619 76.132 148.778C77.7542 149.298 78.7627 149.532 79.6224 149.614C80.3744 149.686 81.0124 149.641 81.8476 149.57L81.8474 149.568C82.7005 149.474 83.5111 149.35 84.0625 149.23Z" fill="#155263"/>
<path d="M78.527 146.329C75.5923 147.737 71.3332 147.369 71.0273 147.341C71.0696 146.608 71.187 145.908 71.2716 145.59C71.2749 145.576 71.28 145.556 71.28 145.556C72.4342 146.077 73.8689 146.81 77.5123 145.186C77.7967 145.659 78.1402 146.029 78.527 146.329Z" fill="#103E4A"/>
<path d="M83.9473 149.607C83.7611 149.667 82.0667 149.964 80.379 149.997C78.3874 150.041 76.179 149.014 75.3971 148.993C75.3971 148.993 75.2801 148.99 75.0842 148.985L75.0587 149.737L71.1627 149.634L71.1006 148.882C71.0998 148.881 71.0991 148.881 71.0991 148.881L71.0449 148.518C75.7432 148.656 75.6375 148.617 76.1323 148.775C79.174 149.751 80.0596 149.721 81.8478 149.568L81.8477 149.566C82.7075 149.471 83.5244 149.346 84.0759 149.224C84.0759 149.398 84.1048 149.556 83.9473 149.607Z" fill="#103E4A"/>
<path d="M70.8183 149.183C70.864 149.034 70.8665 148.808 70.8257 148.643C70.6891 148.09 70.0325 147.697 69.3595 147.667C68.8071 147.643 68.3292 147.597 67.8482 147.433C66.4343 147.021 65.0977 146.522 64.268 145.139C60.6246 146.763 59.1902 146.031 58.036 145.509C58.036 145.509 58.0309 145.529 58.0274 145.544C57.8961 146.035 57.6869 147.442 57.7999 148.473L57.8542 148.836L57.8006 148.473C62.4988 148.611 62.3931 148.572 62.8879 148.731C64.5101 149.251 65.5186 149.486 66.3783 149.567C67.1303 149.639 67.7682 149.594 68.6034 149.523L68.6031 149.522C69.4564 149.428 70.267 149.303 70.8183 149.183Z" fill="#155263"/>
<path d="M65.2829 146.282C62.3481 147.691 58.0891 147.323 57.7832 147.294C57.8255 146.561 57.9428 145.862 58.0274 145.544C58.0308 145.529 58.0359 145.509 58.0359 145.509C59.1901 146.031 60.6248 146.763 64.2682 145.139C64.5525 145.613 64.8961 145.983 65.2829 146.282Z" fill="#103E4A"/>
<path d="M70.7032 149.564C70.517 149.624 68.8225 149.921 67.1348 149.954C65.1431 149.998 62.9349 148.971 62.153 148.95C62.153 148.95 62.036 148.947 61.84 148.942L61.8145 149.694L57.9186 149.591L57.8565 148.839C57.8557 148.838 57.8549 148.838 57.8549 148.838L57.8008 148.475C62.499 148.613 62.3934 148.574 62.8881 148.732C65.9299 149.708 66.8154 149.678 68.6037 149.525L68.6034 149.523C69.4632 149.428 70.2801 149.303 70.8316 149.181C70.8318 149.355 70.8607 149.513 70.7032 149.564Z" fill="#103E4A"/>
<path d="M77.7976 143.401L76.955 142.855L77.7338 141.578L77.1787 125.746L76.9834 98.8477L59.6959 99.7541L59.7642 123.565L57.998 145.669C59.1956 146.999 64.8412 145.639 64.8412 145.639L64.7226 144.182L63.6044 143.033L65.0759 141.811L68.884 118.461L70.9302 145.776C74.5996 147.099 77.8751 145.612 77.8751 145.612L77.7976 143.401Z" fill="#155263"/>
<path d="M73.8066 101.231L76.9991 100.856L76.9848 98.8467L73.5945 96.9629L59.6973 99.7531L59.7031 101.796C62.682 103.197 66.0083 103.885 69.2683 103.721C69.9067 103.689 70.5417 103.624 71.1711 103.525L68.886 118.46L70.9317 145.775C71.5261 145.989 72.1097 146.129 72.67 146.214L71.1256 118.166L73.8066 101.231Z" fill="#103E4A"/>
<path d="M77.8767 145.613C77.8767 145.613 77.8153 145.64 77.7004 145.684L77.3913 144.475L75.7734 143.202L76.7987 141.428L77.5926 137.521L77.5937 137.523L77.7359 141.578L76.9565 142.856L77.8001 143.402L77.8767 145.613Z" fill="#103E4A"/>
<path d="M89.0048 39.072C89.0713 39.2929 89.2144 39.5289 89.2078 39.5889C89.1968 39.6646 89.3119 40.1616 89.3805 40.7048C89.4051 40.8994 89.1992 41.1262 90.1055 43.9564C90.3716 44.5589 90.0747 45.0158 89.9363 45.2659L93.3984 46.4779C93.9128 45.4248 94.2675 45.3657 95.2751 43.2959C95.446 42.9449 95.7677 42.2505 95.113 41.743C94.9317 41.6025 94.7113 41.6928 94.6255 41.7703C94.6744 41.7114 94.7152 41.6615 94.7438 41.6232C95.0338 41.2363 94.3865 40.4846 93.8841 40.7866C94.0551 40.4614 94.0574 40.3797 93.9842 40.1332C93.9456 40.0022 93.5276 39.696 93.3015 39.7364C93.0744 39.777 92.7793 40.1555 92.7153 40.1217C92.6075 40.0647 93.0988 38.7694 93.1287 38.6614C93.5268 37.2118 94.0686 36.4502 93.407 36.2209C93.0645 36.1022 92.838 36.3867 92.6893 36.6915C92.4409 37.2004 91.3986 40.6367 90.943 41.1666C90.8361 41.1297 90.6496 40.9341 90.6035 40.7594C90.5472 40.545 90.388 39.7784 90.1353 39.4611C89.8825 39.1439 89.5602 38.6779 89.1446 38.7252C88.879 38.7555 89.0139 39.0457 89.0048 39.072Z" fill="#EF8371"/>
<path d="M89.2084 39.5751C89.1952 39.4752 88.9612 39.1033 88.9795 38.8849C89.0733 38.8034 89.167 38.7691 89.2396 38.8449C89.3989 39.011 89.2885 39.3738 89.2084 39.5751Z" fill="#F29C8D"/>
<path d="M92.7993 43.098C92.7436 43.0563 92.6583 43.0761 92.6086 43.1424L92.5405 43.2333C92.3999 43.4208 92.4136 43.6682 92.5709 43.7863C92.7282 43.9043 92.9697 43.848 93.1102 43.6605L93.1784 43.5696C93.228 43.5034 93.2233 43.4159 93.1676 43.3742L92.7993 43.098Z" fill="#F29C8D"/>
<path d="M92.613 42.6724L92.6619 42.5663C92.6942 42.496 92.6735 42.4171 92.6157 42.3905C92.6127 42.3892 92.1849 42.1923 92.182 42.1911C92.124 42.1671 92.0537 42.2026 92.0219 42.2718L91.9731 42.3779C91.8758 42.5895 91.9402 42.8278 92.1168 42.909C92.2958 42.9912 92.5155 42.8842 92.613 42.6724Z" fill="#F29C8D"/>
<path d="M93.6455 43.4593C93.6034 43.4244 93.5357 43.4367 93.4941 43.4868L93.437 43.5556C93.3195 43.6974 93.3206 43.8922 93.4396 43.991C93.5586 44.0897 93.7504 44.0548 93.8679 43.913L93.925 43.8443C93.9665 43.7941 93.9662 43.7252 93.9241 43.6903L93.6455 43.4593Z" fill="#F29C8D"/>
<path opacity="0.76" d="M93.0976 44.0625C93.2418 44.3431 93.6916 44.4702 94.2048 44.0963C94.5366 43.8547 94.7005 43.6911 95.4364 42.9163C95.4633 42.8294 95.487 42.7379 95.4988 42.6425C95.5036 42.6055 95.5056 42.5669 95.5076 42.5283C95.2912 42.7656 94.9955 43.0639 94.8666 43.2197C94.6682 43.4598 93.8362 44.2266 93.5471 44.1258C93.4559 44.1197 93.3793 44.08 93.3275 44.0186C93.0902 43.7438 93.3953 43.5288 94.7409 41.7015C94.693 41.7206 94.6531 41.7459 94.6267 41.7706C94.6759 41.7118 94.2642 42.2415 94.064 42.5129C93.0828 43.8432 93.058 43.9204 92.7972 43.9414C92.656 43.9541 92.5228 43.9024 92.4303 43.7752C92.1876 43.4419 92.2985 43.4044 93.9382 40.7594C93.9206 40.7669 93.9028 40.7763 93.8857 40.7871C93.9317 40.697 93.6907 41.0594 93.6267 41.1648C93.0127 42.1763 92.9024 42.3536 92.6037 42.8475C92.3744 43.2249 91.8067 43.0478 91.8669 42.5475C91.8737 42.394 91.9226 42.2062 91.9943 41.9985C92.0976 41.7057 92.7678 40.1313 92.7871 40.0944C92.7558 40.1172 92.7305 40.1286 92.7163 40.1212C92.6879 40.1064 92.7011 40.0031 92.7383 39.8574C92.5957 40.0746 92.4666 40.3029 92.432 40.3937C92.0392 41.4333 91.0843 43.0805 92.1768 43.24C91.9361 43.8595 92.5573 44.3747 93.0976 44.0625Z" fill="#DC9964"/>
<path d="M90.0807 44.5957L89.6953 45.4459L93.6592 46.8398L94.0366 45.9503L90.0807 44.5957Z" fill="#E8F3F8"/>
<path d="M45.1191 96.3048L50.5821 96.6182C51.2515 96.6566 51.763 97.2304 51.7246 97.8999L51.5708 100.581L50.3645 100.512L50.5183 97.8307L45.0437 97.5165L44.8899 100.198L43.6836 100.129L43.8374 97.4473C43.8758 96.7778 44.4496 96.2663 45.1191 96.3048Z" fill="#103E4A"/>
<path d="M51.8427 99.9702L51.9176 100.24L51.897 100.599L50.0391 100.493L50.0597 100.134L50.1652 99.875L51.8427 99.9702Z" fill="#103E4A"/>
<path d="M45.1617 99.5883L45.2358 99.8576L45.216 100.217L43.3574 100.11L43.378 99.7516L43.4835 99.4922L45.1617 99.5883Z" fill="#103E4A"/>
<path d="M36.895 100.601L36.6386 105.069H36.6393L36.2025 112.682C36.1776 113.115 36.5082 113.485 36.9402 113.51L56.7239 114.645C57.1561 114.67 57.5267 114.34 57.5516 113.907L58.2447 101.826C58.267 101.436 58.054 101.088 57.7311 100.916L37.5091 99.7559C37.1686 99.8893 36.9175 100.211 36.895 100.601Z" fill="#155263"/>
<path d="M57.9112 107.627L57.5507 113.905C57.527 114.338 57.1552 114.669 56.7235 114.644L36.9395 113.509C36.5078 113.485 36.1773 113.113 36.2025 112.68L36.2327 112.161L55.7555 113.281C56.1872 113.306 56.5591 112.975 56.5828 112.542L56.8253 108.306L48.5161 107.83L48.4374 109.217C48.4281 109.369 48.2989 109.482 48.1475 109.474L46.7823 109.395C46.6316 109.386 46.5162 109.257 46.5242 109.107L46.6039 107.72L37.3656 107.189C36.9676 107.166 36.6576 106.849 36.6368 106.459C36.7492 106.538 36.8847 106.587 37.0321 106.595L56.8587 107.733L57.422 107.766C57.603 107.776 57.7733 107.723 57.9112 107.627Z" fill="#103E4A"/>
<path d="M37.0326 106.596L57.4227 107.765C57.8507 107.79 58.2174 107.463 58.2421 107.035L58.5904 100.964L36.6504 99.7051L36.3021 105.776C36.2776 106.204 36.6046 106.571 37.0326 106.596Z" fill="#155263"/>
<path d="M46.3496 107.122L48.1113 107.223L48.5042 100.376L46.7425 100.275L46.3496 107.122Z" fill="#103E4A"/>
<path d="M48.1373 107.231L48.1831 107.234L48.1041 108.622C48.0952 108.773 47.9657 108.887 47.8151 108.878L46.449 108.801C46.2985 108.792 46.183 108.663 46.1919 108.512L46.2709 107.124L46.3168 107.127L46.3744 106.123L48.195 106.227L48.1373 107.231Z" fill="#BCBEC0"/>
<path d="M48.1396 107.231L48.1854 107.234L48.1058 108.621C48.1002 108.717 48.0467 108.799 47.9689 108.843C47.999 108.802 48.019 108.752 48.0218 108.697L48.0964 107.398L46.2637 107.292L46.2731 107.124L48.0764 107.228L48.125 106.37L46.3692 106.27L46.3767 106.123L48.1973 106.227L48.1396 107.231Z" fill="#D7D8D9"/>
<path d="M46.7878 107.987C46.7753 108.203 46.9405 108.388 47.1567 108.401C47.3729 108.413 47.5583 108.248 47.5706 108.032C47.583 107.815 47.4178 107.63 47.2016 107.618C46.9855 107.605 46.8002 107.771 46.7878 107.987Z" fill="#808080"/>
<path d="M50.3652 96.6023C50.3543 96.8304 50.3347 97.2788 50.3192 97.8153L50.5181 97.8265L50.4026 99.8371C50.2308 99.6416 50.1749 99.364 50.1657 99.1214L50.1653 99.0997C49.9561 99.4822 49.8561 99.7953 49.3777 99.8366C49.2768 99.8434 49.1753 99.8394 49.0727 99.792C48.8944 99.7111 48.7976 99.6109 48.7552 99.5091C48.6172 99.7517 48.3818 99.9581 47.9853 99.8959C47.6493 99.8406 47.4999 99.6135 47.436 99.393C47.3997 99.2653 47.2442 99.2143 47.1401 99.2956C47.0338 99.377 46.9239 99.4365 46.7339 99.4202C46.1758 99.3727 46.1398 98.8976 46.1295 98.6895C46.1282 98.6635 46.0982 98.6497 46.0771 98.6663C45.789 98.8961 45.1933 98.5444 45.081 98.0455C44.9643 97.5161 44.9669 96.2306 44.973 95.497C44.979 94.7656 45.3234 93.7118 45.3321 93.2965C45.3364 93.1125 45.3278 92.5085 45.3165 91.8945L49.1313 92.1143C49.1358 92.3319 49.142 92.5301 49.1496 92.6776C49.1801 93.3061 49.3602 93.8167 49.6325 94.1623C49.8454 94.4347 50.3804 94.8311 50.6766 95.2942C50.7377 95.3901 51.0823 95.9369 51.3158 96.9165C51.1195 96.743 50.8641 96.6308 50.582 96.6149L50.3652 96.6023Z" fill="#EF8371"/>
<path d="M46.0451 98.6893C46.0872 98.5369 46.1058 98.2038 46.0345 97.8613C45.961 97.8693 45.8959 97.9288 45.8816 98.0016C45.8716 98.0522 45.8802 98.2064 45.7695 98.3141C45.6945 98.3871 45.5324 98.3814 45.4187 98.4164C45.381 98.4279 45.3441 98.4454 45.3145 98.4706C45.5336 98.6995 45.8467 98.8104 46.0451 98.6893Z" fill="#EC6F66"/>
<path d="M46.1357 98.7687L46.1283 97.92C46.128 97.8786 46.0942 97.8454 46.0528 97.8457C46.032 97.8459 46.0134 97.8545 46 97.8682C45.9867 97.8818 45.9784 97.9008 45.9785 97.9214L45.9854 98.7181C46.0193 98.7065 46.051 98.6895 46.0796 98.6668C46.1 98.6506 46.1302 98.6639 46.1314 98.69C46.1325 98.7135 46.1337 98.7401 46.1357 98.7687Z" fill="#EC6F66"/>
<path d="M47.1389 99.2972C47.1873 99.2595 47.2462 99.2501 47.2993 99.2635C47.2999 99.2429 47.2997 99.2223 47.2996 99.202C47.2974 98.9387 47.2953 98.6754 47.2931 98.4121C47.2248 98.4367 47.1622 98.4982 47.1525 98.5702C47.0866 99.0586 46.2666 99.1329 46.252 99.1609C46.3368 99.2922 46.4822 99.4002 46.7328 99.4216C46.9235 99.4377 47.0334 99.3793 47.1389 99.2972Z" fill="#EC6F66"/>
<path d="M48.7555 99.5091C48.7587 99.5168 48.7623 99.5248 48.7663 99.5324C48.7678 99.396 48.7624 99.3331 48.7164 98.5039C48.4445 99.1852 47.5336 99.361 47.3537 98.9856C47.3359 99.0798 47.3286 99.1754 47.3262 99.2712C47.3768 99.2919 47.4186 99.3345 47.4357 99.3933C47.4996 99.6141 47.6488 99.8405 47.9859 99.8949C48.3818 99.9588 48.6169 99.7518 48.7555 99.5091Z" fill="#EC6F66"/>
<path d="M48.8312 99.6266L48.8217 98.5333C48.8214 98.4919 48.7875 98.4587 48.7462 98.459C48.7254 98.4591 48.7068 98.4678 48.6934 98.4814C48.68 98.495 48.6717 98.5139 48.6719 98.5346L48.6813 99.6216C48.7085 99.5856 48.7331 99.548 48.7552 99.5092C48.772 99.549 48.7968 99.5884 48.8312 99.6266Z" fill="#EC6F66"/>
<path d="M47.4055 99.3337L47.4058 98.4505C47.4063 98.4091 47.373 98.3753 47.3317 98.375C47.2903 98.3745 47.2565 98.4079 47.2562 98.4491L47.2559 99.2554C47.314 99.2567 47.3704 99.285 47.4055 99.3337Z" fill="#EC6F66"/>
<path d="M49.0721 99.7926C48.914 99.7203 48.8211 99.6344 48.7719 99.5449C48.7556 99.3921 48.7814 99.3486 48.9175 99.3342C49.205 99.3037 49.4824 99.1853 49.7034 98.9989C49.9487 98.7919 50.1668 98.0182 50.1995 97.1505C50.2126 96.8034 50.3725 96.4355 50.3725 96.4355L50.3864 98.028L50.1643 99.1001C49.9711 99.4534 49.8713 99.7472 49.4784 99.8215C49.4786 99.8214 49.4787 99.8214 49.4787 99.8212C49.4483 99.8274 49.4146 99.832 49.3768 99.8354C49.2762 99.8438 49.1748 99.8395 49.0721 99.7926Z" fill="#EC6F66"/>
<path d="M50.1947 99.3813C50.1978 99.3843 50.2003 99.3883 50.2021 99.3936C50.3571 98.9057 50.5026 98.2093 50.4982 97.9405C50.4846 97.1091 50.373 96.4375 50.373 96.4375C50.3724 96.444 50.3381 97.1009 50.315 97.9434C50.2987 98.5389 50.1349 99.053 49.9922 99.423C50.0486 99.326 50.1017 99.2172 50.1646 99.1021L50.1654 99.1233C50.169 99.2065 50.1777 99.2943 50.1947 99.3813Z" fill="#EC6F66"/>
<path d="M49.4535 91.8813L45.207 91.4941L45.0986 92.6836L49.3451 93.0707L49.4535 91.8813Z" fill="#E6F1F6"/>
<path d="M66.4353 58.775C66.3875 58.319 66.1353 57.6771 65.8219 57.105C64.443 54.5886 61.9727 48.72 67.4319 47.0958C73.7471 45.217 74.3815 48.9524 74.9519 51.1709C74.9519 51.1709 74.8842 51.6484 74.9599 51.8394C75.0355 52.0304 76.3926 53.787 76.4941 54.4257C76.5339 54.6761 76.1719 54.7168 75.8051 54.8545C75.8051 54.8545 75.5929 54.983 75.6081 55.3389L75.7268 55.7103C75.7268 55.7103 75.7028 55.9631 75.4534 56.0634C75.4534 56.0634 75.6648 56.3273 75.6931 56.4631C75.7216 56.599 75.325 57.3211 75.325 57.3211C75.325 57.3211 76.2758 58.8394 74.614 59.2047C72.0994 59.7573 72.3321 59.8792 72.2669 63.7645L72.3168 64.5665L66.0956 61.1434C66.0955 61.1437 66.4992 59.3846 66.4353 58.775Z" fill="#EF8371"/>
<path d="M69.809 59.8487C69.9021 59.899 71.458 60.6752 72.3481 60.9205C72.5339 59.5879 73.223 59.5083 74.6128 59.2031C74.8879 59.1422 75.092 59.0507 75.2402 58.9388C72.5222 59.2064 68.9369 59.1339 68.3147 57.2812C68.3147 57.2812 68.1066 58.9612 69.809 59.8487Z" fill="#EC6F66"/>
<path d="M74.2376 48.3852C74.1973 48.4488 74.0055 48.5382 73.9827 48.548C73.8217 48.6171 73.6172 48.6312 73.3676 48.5136C72.6436 48.1717 71.6725 47.4703 71.2198 47.9752C70.7667 48.4799 71.1766 49.2822 71.5269 49.743C71.8772 50.2037 71.0345 50.7055 70.9972 51.1784C70.9602 51.6513 71.0343 52.0762 71.2779 52.5844C71.5215 53.0926 71.6255 53.2638 71.6255 53.2638L70.4605 53.7988C70.4605 53.7988 69.2894 52.7531 68.6764 52.6134C68.045 52.4695 67.3032 52.9698 67.3783 54.0798C67.4533 55.1899 68.1438 56.596 68.1438 56.596C68.1438 56.596 67.3471 57.7094 66.3273 58.4677V58.468L66.1011 58.64C66.0445 58.1963 65.9124 57.7497 65.6196 57.2149C63.255 52.8999 62.6505 48.2764 67.3664 46.8737C70.0396 46.0782 72.797 45.925 74.2073 48.3287L74.2376 48.3852Z" fill="#103E4A"/>
<path d="M67.6617 52.982C67.8847 52.6177 68.3832 52.3596 69.0465 52.6755C69.0465 52.6755 69.3956 52.8868 69.4017 53.5945C69.4079 54.3023 70.3421 54.7687 69.9549 55.6759C69.9517 55.6793 69.655 55.9878 69.0586 55.5406C68.4588 55.0909 68.194 54.8857 68.0085 54.5868C67.8538 54.3375 67.2711 53.6201 67.6617 52.982Z" fill="#EF8371"/>
<path d="M68.9436 53.7135C68.9436 53.7135 69.2187 53.1402 68.7586 52.9179C68.2984 52.6957 67.7446 53.2412 67.8615 53.8193C67.8615 53.8193 67.9836 53.1466 68.3707 53.0879C68.7578 53.0291 68.8815 53.2661 68.9147 53.4084C68.9147 53.4084 68.7846 53.5508 68.6119 53.6646C68.4393 53.7784 68.4751 54.0533 68.5065 54.1828C68.5065 54.1828 68.5259 53.9638 68.6431 53.87C68.7604 53.7764 68.7764 53.7273 68.9436 53.7135Z" fill="#EC6F66"/>
<path d="M68.9471 53.9706L69.1555 53.8047C69.1555 53.8047 69.1644 53.9783 69.2607 54.1127C69.3569 54.2471 69.5658 54.3148 69.6231 54.4229C69.6805 54.531 69.6191 54.7039 69.488 54.6479C69.3568 54.5919 69.0521 54.4703 68.8065 54.5067C68.5609 54.5433 68.5162 54.3106 68.5482 54.259C68.58 54.2073 68.7385 54.1366 68.9471 53.9706Z" fill="#EC6F66"/>
<path d="M69.9558 55.6746C69.9467 55.6931 69.7048 56.1574 68.882 55.7554C68.186 55.4152 67.5061 54.6867 67.6054 53.791C67.6995 54.1417 67.9202 54.4415 68.0094 54.5853C68.195 54.8843 68.4597 55.0895 69.0595 55.539C69.647 55.9794 69.9436 55.6871 69.9558 55.6746Z" fill="#EC6F66"/>
<path d="M71.8021 64.3242L69.4512 66.8982L73.4378 80.5087L74.6966 68.0118L71.8021 64.3242Z" fill="#DBE6EC"/>
<path d="M78.1766 69.4032L76.8805 85.6908L77.3033 99.6507L74.058 99.9398L73.6008 97.5295L72.2062 102.001C72.2062 102.001 65.4984 103.729 58.5991 99.3236L60.1407 80.016L58.4955 73.7456L51.5659 78.3868L49.5844 92.1429L44.8867 91.8727L46.0538 77.2035L56.3272 65.2784L63.7163 62.0726L65.3843 60.3806L69.4531 66.8986L73.4396 80.5092L74.6985 68.0114L72.3246 61.2296L76.6274 59.8878L78.285 60.1934L84.0249 57.1702L89.6347 45.0332L93.9955 46.5816L87.6479 62.0012L78.1766 69.4032Z" fill="#155263"/>
<path d="M65.3828 60.3804L66.2182 59.6699L71.754 63.9063L72.3228 61.2301L74.6967 68.012L71.8023 64.3245L69.4513 66.8985L65.3828 60.3804Z" fill="#E8F3F8"/>
<path d="M71.8036 64.3242L70.2148 66.0637L71.2094 67.9882L71.7706 74.8109L73.4393 80.5087L73.9882 75.0601L72.8903 67.6508L73.2859 66.2126L71.8036 64.3242Z" fill="#FF6F3C"/>
<path d="M71.8614 84.9391C72.0316 85.2816 71.892 85.6972 71.5495 85.8672C71.207 86.0375 70.7915 85.8978 70.6214 85.5553C70.4511 85.2129 70.5908 84.7973 70.9333 84.6272C71.2757 84.457 71.6913 84.5966 71.8614 84.9391Z" fill="#103E4A"/>
<path d="M71.9219 91.4C72.0922 91.7425 71.9525 92.158 71.61 92.3281C71.2675 92.4983 70.852 92.3587 70.6819 92.0162C70.5117 91.6737 70.6513 91.2582 70.9938 91.0881C71.3363 90.918 71.7517 91.0575 71.9219 91.4Z" fill="#103E4A"/>
<path d="M68.3927 92.4125C68.3781 92.5582 68.3621 92.7041 68.3447 92.8502C68.309 93.1596 68.0605 93.4291 67.8012 93.4437C65.5236 93.5753 63.3398 93.318 61.3418 92.7495C61.4013 92.6188 61.4607 92.4868 61.5174 92.3555C63.481 92.9051 65.628 93.1479 67.8675 93.0066C68.1225 92.9908 68.3627 92.7212 68.3927 92.4125Z" fill="#103E4A"/>
<path d="M68.5066 89.9099C68.5078 90.0526 68.5077 90.1955 68.5061 90.3388C66.3458 90.5894 64.2751 90.4266 62.4004 89.9439C62.4407 89.8096 62.4793 89.6763 62.5163 89.543C64.3543 90.0114 66.3863 90.1646 68.5066 89.9099Z" fill="#103E4A"/>
<path d="M85.3298 59.1811L83.2969 57.5531L84.0245 57.1694L84.6536 55.8066L85.3298 59.1811Z" fill="#103E4A"/>
<path d="M93.9953 46.5809L87.6476 62.0006C86.1945 63.136 79.4093 68.4375 78.175 69.4024L76.627 59.8872L77.4548 60.0399L78.7305 67.3775L87.3447 60.6195L92.9049 46.1934L93.9953 46.5809Z" fill="#103E4A"/>
<path d="M60.139 80.0171C60.3874 72.7988 58.3414 67.1195 57.3567 64.832L56.3255 65.2789C56.3255 65.2789 57.9995 68.6655 58.4069 72.1392L50.6398 77.1087L48.8789 92.1026L49.5834 92.1436L51.5648 78.3876L58.4944 73.7464V73.7467L60.139 80.0171Z" fill="#103E4A"/>
<path d="M73.468 83.7485L73.5993 97.53L73.0637 99.2459L72.5986 81.7017L67.1565 69.1322L68.1524 66.8786L66.6196 67.1514L63.7148 62.0729L65.3828 60.3809L69.4516 66.8989L73.4383 80.5095L74.6974 68.0119L72.3233 61.2301L73.3153 60.8356L75.1884 66.0358L74.8822 66.6687L75.8303 67.156L73.468 83.7485Z" fill="#103E4A"/>
<path d="M142.905 138.107L143.825 140.169L144.627 140.866L141.303 142.83L137.969 142.458L138.07 138.282L142.905 138.107Z" fill="#103E4A"/>
<path d="M142.85 144.854L142.934 145.779L138.231 146.238L138.041 145.326L142.85 144.854Z" fill="#103E4A"/>
<path d="M152.277 143.333C151.997 142.719 151.157 142.422 150.363 142.505C148.034 142.748 145.069 141.172 144.328 140.336C141.079 141.804 139.234 141.798 137.766 141.341C137.701 141.783 137.559 143.6 138.041 145.324C138.503 145.279 141.518 144.984 143.408 144.799C144.233 145.103 145.68 145.421 146.494 145.395C149.905 145.287 152.006 144.147 152.258 144.012C152.41 143.929 152.318 143.422 152.277 143.333Z" fill="#155263"/>
<path d="M144.508 141.591L144.976 140.871C145.147 140.609 145.542 140.867 145.372 141.129L144.905 141.849C144.734 142.111 144.338 141.853 144.508 141.591Z" fill="#103E4A"/>
<path d="M145.589 142.244L145.964 141.466C146.1 141.185 146.525 141.39 146.39 141.672L146.015 142.449C145.879 142.73 145.453 142.525 145.589 142.244Z" fill="#103E4A"/>
<path d="M146.673 142.717L146.966 141.911C147.074 141.617 147.517 141.78 147.411 142.073L147.117 142.879C147.01 143.173 146.566 143.011 146.673 142.717Z" fill="#103E4A"/>
<path d="M147.944 143.13L148.123 142.295C148.189 141.99 148.651 142.088 148.585 142.394L148.406 143.23C148.34 143.535 147.878 143.436 147.944 143.13Z" fill="#103E4A"/>
<path d="M152.256 144.012C152.004 144.147 149.903 145.286 146.492 145.395C145.678 145.42 144.231 145.103 143.405 144.799C141.516 144.983 138.501 145.279 138.039 145.324C138 145.19 137.967 145.054 137.938 144.919C139.493 144.766 142.037 144.517 143.365 144.388C144.191 144.692 145.638 145.01 146.452 144.984C149.464 144.888 151.674 143.866 152.322 143.535C152.351 143.718 152.357 143.958 152.256 144.012Z" fill="#103E4A"/>
<path d="M106.52 141.569L104.338 142.147L103.521 142.828L102.115 139.232L103.017 136L107.148 136.356L106.52 141.569Z" fill="#103E4A"/>
<path d="M99.8702 140.436L98.9434 140.371L99.2434 135.655L100.174 135.613L99.8702 140.436Z" fill="#103E4A"/>
<path d="M99.8609 149.984C100.512 149.806 100.94 149.024 100.985 148.227C101.118 145.889 103.148 143.215 104.092 142.618C103.163 139.175 103.466 137.355 104.151 135.979C103.726 135.845 101.955 135.413 100.175 135.612C100.146 136.076 99.9548 139.1 99.8345 140.994C99.4017 141.76 98.8567 143.137 98.7515 143.945C98.312 147.329 99.1 149.585 99.1932 149.856C99.2509 150.02 99.7662 150.01 99.8609 149.984Z" fill="#155263"/>
<path d="M102.826 142.588L103.462 143.165C103.694 143.376 103.375 143.724 103.144 143.515L102.508 142.938C102.277 142.728 102.594 142.378 102.826 142.588Z" fill="#103E4A"/>
<path d="M102.007 143.554L102.714 144.048C102.97 144.227 102.699 144.615 102.443 144.436L101.736 143.941C101.48 143.763 101.75 143.375 102.007 143.554Z" fill="#103E4A"/>
<path d="M101.365 144.551L102.113 144.97C102.387 145.123 102.154 145.535 101.882 145.382L101.134 144.963C100.861 144.811 101.092 144.398 101.365 144.551Z" fill="#103E4A"/>
<path d="M100.754 145.735L101.55 146.046C101.84 146.16 101.67 146.601 101.378 146.487L100.582 146.176C100.291 146.062 100.463 145.622 100.754 145.735Z" fill="#103E4A"/>
<path d="M99.1933 149.857C99.1001 149.586 98.3119 147.33 98.7516 143.946C98.8566 143.138 99.4021 141.761 99.8346 140.995C99.9551 139.1 100.146 136.077 100.175 135.613C100.314 135.597 100.453 135.585 100.591 135.578C100.494 137.138 100.331 139.689 100.246 141.021C99.814 141.788 99.2685 143.164 99.1633 143.972C98.7757 146.96 99.4302 149.306 99.6529 149.999C99.4685 149.998 99.2306 149.965 99.1933 149.857Z" fill="#103E4A"/>
<path d="M145.025 120.033L144.314 136.671L143.406 137.698L144.251 138.126L144.168 140.078L137.737 140.706L137.76 125.071L127.211 124.41L126.734 137.575C126.642 140.112 124.559 142.124 122.019 142.128L104.34 142.15L104.471 136.129L119.661 136.086L116.243 116.184L126.664 114.469L142.642 117.101C144.064 117.334 145.087 118.594 145.025 120.033Z" fill="#155263"/>
<path d="M127.211 124.41L127.049 128.862L126.734 137.575C126.642 140.112 124.559 142.123 122.019 142.128L104.34 142.15L104.372 140.695L120.669 140.674C123.208 140.672 125.291 138.66 125.383 136.122L125.658 128.553L118.078 126.872L117.145 121.434L124.417 123.462L127.211 124.41Z" fill="#103E4A"/>
<path d="M131.591 115.278C131.254 115.902 130.992 116.189 130.23 116.559C129.519 116.904 128.758 117.138 127.978 117.267C124.267 117.879 120.423 118.017 116.457 117.424L116.244 116.182L126.665 114.467L131.591 115.278Z" fill="#103E4A"/>
<path d="M107.046 106.391L102.579 104.052C102.032 103.765 101.356 103.977 101.069 104.524L100.188 106.207L99.9949 106.106L99.8078 106.284L99.6543 106.577L101.174 107.373L101.327 107.079L101.367 106.825L101.174 106.723L102.055 105.041L106.532 107.384L105.651 109.068L105.458 108.967L105.271 109.144L105.118 109.438L106.637 110.233L106.791 109.94L106.83 109.684L106.638 109.583L107.519 107.901C107.805 107.353 107.594 106.677 107.046 106.391Z" fill="#103E4A"/>
<path d="M93.7231 104.422L91.7432 108.203L91.7438 108.203L88.3708 114.646C88.179 115.012 88.3203 115.464 88.686 115.656L105.429 124.421C105.794 124.613 106.246 124.472 106.438 124.105L111.791 113.881C111.964 113.551 111.916 113.165 111.702 112.889L94.5886 103.929C94.2406 103.911 93.8958 104.092 93.7231 104.422Z" fill="#155263"/>
<path d="M109.22 118.788L106.437 124.102C106.247 124.468 105.794 124.609 105.428 124.419L88.6854 115.652C88.32 115.461 88.179 115.008 88.3709 114.643L88.6013 114.203L105.123 122.854C105.489 123.045 105.942 122.904 106.132 122.537L108.009 118.952L100.977 115.271L100.363 116.445C100.295 116.573 100.139 116.621 100.01 116.554L98.855 115.949C98.7277 115.882 98.678 115.724 98.744 115.597L99.3587 114.423L91.541 110.329C91.2042 110.152 91.0595 109.755 91.1947 109.408C91.2614 109.521 91.3597 109.617 91.4844 109.682L108.263 118.467L108.74 118.717C108.893 118.797 109.062 118.818 109.22 118.788Z" fill="#103E4A"/>
<path d="M91.485 109.684L108.741 118.718C109.103 118.908 109.55 118.768 109.74 118.406L112.43 113.268L93.8624 103.547L91.1725 108.684C90.9828 109.047 91.1228 109.494 91.485 109.684Z" fill="#155263"/>
<path d="M99.3587 113.819L100.85 114.6L103.883 108.806L102.392 108.026L99.3587 113.819Z" fill="#103E4A"/>
<path d="M100.882 114.601L100.921 114.622L100.306 115.797C100.239 115.924 100.082 115.973 99.9544 115.906L98.798 115.301C98.6707 115.234 98.621 115.077 98.6881 114.95L99.3026 113.775L99.3414 113.795L99.7863 112.945L101.327 113.752L100.882 114.601Z" fill="#BCBEC0"/>
<path d="M100.88 114.602L100.919 114.622L100.304 115.796C100.262 115.877 100.183 115.927 100.098 115.935C100.141 115.911 100.177 115.876 100.202 115.828L100.777 114.729L99.2266 113.917L99.3008 113.775L100.827 114.574L101.206 113.848L99.7202 113.07L99.7845 112.945L101.325 113.752L100.88 114.602Z" fill="#D7D8D9"/>
<path d="M99.4099 114.728C99.3141 114.911 99.3849 115.137 99.5677 115.233C99.7507 115.328 99.9766 115.258 100.072 115.075C100.168 114.892 100.098 114.666 99.9147 114.57C99.7315 114.474 99.5056 114.545 99.4099 114.728Z" fill="#808080"/>
<path d="M107.34 102.542C107.127 103.081 107.084 103.579 107.181 103.973C107.257 104.282 107.555 104.818 107.628 105.319C107.643 105.423 107.724 106.013 107.548 106.925C107.449 106.704 107.277 106.513 107.046 106.392L106.869 106.299C106.774 106.486 106.587 106.855 106.37 107.3L106.532 107.385L105.672 109.029C105.601 108.8 105.66 108.545 105.744 108.338L105.752 108.32C105.432 108.562 105.229 108.786 104.811 108.639C104.724 108.607 104.64 108.565 104.572 108.486C104.453 108.35 104.41 108.23 104.413 108.127C104.205 108.279 103.929 108.363 103.62 108.16C103.359 107.985 103.32 107.739 103.349 107.529C103.367 107.408 103.257 107.306 103.138 107.335C103.018 107.363 102.903 107.371 102.75 107.285C102.299 107.033 102.45 106.621 102.52 106.442C102.529 106.42 102.509 106.397 102.486 106.402C102.156 106.486 101.789 105.965 101.885 105.503C101.988 105.014 102.479 103.936 102.763 103.323C103.046 102.711 103.735 101.957 103.9 101.612C104.065 101.266 104.986 99.1094 104.986 99.1094L108.221 100.539C108.125 100.719 107.552 102.003 107.34 102.542Z" fill="#EF8371"/>
<path d="M101.92 105.949C102.022 106.239 102.263 106.458 102.486 106.404C102.51 106.396 102.53 106.42 102.521 106.442C102.518 106.453 102.512 106.464 102.508 106.475L102.81 105.795C102.856 105.694 102.671 105.64 102.574 105.77C102.547 105.808 102.496 105.941 102.362 105.989C102.256 106.027 102.05 105.91 101.92 105.949Z" fill="#EC6F66"/>
<path d="M102.443 106.882C102.487 107.165 102.794 107.412 103.138 107.334C103.257 107.304 103.366 107.407 103.348 107.527C103.267 108.111 103.895 108.501 104.412 108.125C104.409 108.301 104.549 108.544 104.81 108.637C105.229 108.785 105.432 108.56 105.752 108.319C105.718 108.401 105.693 108.467 105.671 108.564C105.677 108.564 106.375 107.697 106.473 107.471C106.62 107.141 106.837 106.545 106.94 106.16C106.94 106.16 106.665 106.409 106.523 106.696C105.549 108.638 104.826 108.026 104.532 108.026L104.84 107.332C104.889 107.235 104.768 107.233 104.752 107.239C104.735 107.246 104.69 107.328 104.69 107.328C104.236 107.685 103.562 107.545 103.452 107.237L103.682 106.727C103.73 106.624 103.52 106.546 103.425 106.729C103.213 107.129 102.467 106.864 102.443 106.882Z" fill="#EC6F66"/>
<path d="M107.886 101.978L104.469 100.039L103.926 100.996L107.343 102.935L107.886 101.978Z" fill="#E8F3F8"/>
<path d="M138.86 89.4116L138.045 94.0213L131.963 104.134L135.081 95.698L133.869 84.5088L131.882 84.9574L130.756 85.2107L128.126 84.3043C128.126 84.3027 128.126 84.3027 128.126 84.3027L128.123 84.3031L112.627 86.8467C111.717 86.9934 110.925 87.548 110.473 88.3498L103.836 100.129L108.146 102.499L114.848 91.6715L121.908 91.7872L120.908 95.9476L116.982 106.562C115.931 109.398 115.539 112.437 115.833 115.448L115.898 116.117C118.069 116.553 120.384 116.638 122.415 116.577C125.679 116.478 128.204 116.001 128.204 116.001C129.125 114.32 127.992 116.426 135.826 101.829L136.485 100.744L140.821 93.4649L138.86 89.4116Z" fill="#155263"/>
<path d="M133.545 85.4776C133.557 85.0364 133.397 84.3918 133.17 83.8063C132.171 81.2308 130.553 75.3184 135.968 74.4563C142.232 73.459 142.367 77.1041 142.632 79.2934C142.632 79.2934 142.507 79.7406 142.555 79.9326C142.603 80.1243 143.677 81.972 143.693 82.5943C143.7 82.8384 143.349 82.8315 142.982 82.9168C142.982 82.9168 142.763 83.0128 142.733 83.3544L142.799 83.7238C142.799 83.7238 142.744 83.9621 142.493 84.0263C142.493 84.0263 142.662 84.3048 142.672 84.438C142.682 84.5713 142.213 85.2104 142.213 85.2104C142.213 85.2104 142.929 86.7796 141.297 86.9186C138.9 87.1228 139.047 87.1829 138.482 90.9748L132.922 87.6953C132.922 87.6953 133.529 86.0674 133.545 85.4776Z" fill="#EF8371"/>
<path d="M141.902 86.76C141.749 86.8405 141.552 86.8967 141.296 86.9184C139.713 87.0542 139.24 87.126 138.938 88.2532C138.078 87.8415 136.705 86.9836 136.63 86.9297C135.117 85.8671 135.527 84.291 135.527 84.291C135.883 86.1154 139.285 86.6643 141.902 86.76Z" fill="#EC6F66"/>
<path d="M142.3 76.5451C142.254 76.6008 142.059 76.6619 142.037 76.6683C141.874 76.714 141.677 76.7017 141.454 76.5579C140.806 76.1402 139.968 75.3485 139.472 75.7733C138.976 76.1979 139.266 77.0153 139.542 77.4992C139.818 77.9832 138.951 78.3558 138.856 78.8026C138.761 79.2492 138.778 79.6641 138.946 80.1798C139.115 80.6956 139.192 80.8721 139.192 80.8721L138.013 81.236C138.013 81.236 137.027 80.0903 136.46 79.8797C135.875 79.6629 135.104 80.0467 135.036 81.1157C134.967 82.1847 135.449 83.6137 135.449 83.6137C135.449 83.6137 134.548 84.576 133.48 85.1713V85.1715L133.242 85.3071C133.244 84.8765 133.174 84.4336 132.962 83.8864C131.249 79.47 131.255 74.9811 135.933 74.2366C138.584 73.8143 141.235 74.0156 142.278 76.4875L142.3 76.5451Z" fill="#103E4A"/>
<path d="M135.444 80.1024C135.703 79.7828 136.211 79.5994 136.805 79.9845C136.805 79.9845 137.111 80.2301 137.028 80.9064C136.945 81.5826 137.778 82.1456 137.294 82.9626C137.29 82.9653 136.968 83.2225 136.455 82.7205C135.939 82.2158 135.712 81.9866 135.573 81.6778C135.457 81.4205 134.991 80.6622 135.444 80.1024Z" fill="#EF8371"/>
<path d="M136.577 80.9626C136.577 80.9626 136.912 80.4502 136.501 80.18C136.09 79.91 135.492 80.3609 135.531 80.9273C135.823 80.0179 136.544 80.2226 136.588 80.6677C136.297 80.9121 136.048 80.8555 136.101 81.3556C136.158 81.0986 136.376 80.9526 136.577 80.9626Z" fill="#EC6F66"/>
<path d="M136.55 81.2083L136.77 81.0762C136.736 81.4923 137.076 81.5571 137.138 81.7252C137.179 81.8356 137.099 81.9929 136.981 81.9228C136.863 81.8528 136.587 81.6983 136.348 81.7023C136.109 81.7063 136.096 81.4785 136.133 81.4333C136.17 81.3881 136.33 81.3404 136.55 81.2083Z" fill="#EC6F66"/>
<path d="M137.293 82.9631C136.844 83.633 134.935 82.2985 135.287 80.8691C135.333 81.2156 135.506 81.5297 135.573 81.6781C135.712 81.9867 135.939 82.2159 136.455 82.7206C136.96 83.2152 137.28 82.9734 137.293 82.9631Z" fill="#EC6F66"/>
<path d="M133.869 84.5089L134.75 84.2988L134.667 84.7037L137.623 90.6375L138.818 88.7905L138.875 89.6499L138.045 94.0212L131.963 104.134L135.079 95.6966L133.869 84.5089Z" fill="#E8F3F8"/>
<path d="M136.058 92.2721L135.98 94.1157L137.281 94.5116L137.929 93.0955L137.623 90.6387L136.058 92.2721Z" fill="#BF532D"/>
<path d="M135.98 94.1152L135.079 95.6973L131.963 104.135L137.088 95.6131L137.28 94.5111L135.98 94.1152Z" fill="#FF6F3C"/>
<path d="M128.132 84.3043C128.025 84.8885 127.302 88.7372 126.83 90.1292C126.191 92.0186 125.105 94.8105 123.464 97.8C121.904 100.643 120.474 103.424 117.704 104.608L120.908 95.9473L121.908 91.7863L114.849 91.6701L108.146 102.499L107.529 102.16L114.105 91.4079L113.4 90.3748L114.85 91.1219L120.836 91.051C122.717 91.027 124.493 90.1479 125.623 88.6439C126.363 87.6556 127.062 86.2878 127.569 84.3946L128.124 84.3027H128.126L128.132 84.3043Z" fill="#103E4A"/>
<path d="M129.05 107.784C129.069 108.069 128.853 108.316 128.568 108.335C128.282 108.354 128.036 108.138 128.017 107.853C127.998 107.568 128.214 107.321 128.499 107.302C128.784 107.283 129.031 107.499 129.05 107.784Z" fill="#103E4A"/>
<path d="M127.068 111.956C127.086 112.241 126.871 112.488 126.585 112.507C126.3 112.526 126.053 112.31 126.034 112.025C126.015 111.739 126.231 111.493 126.517 111.474C126.802 111.455 127.048 111.671 127.068 111.956Z" fill="#103E4A"/>
<path d="M124.856 109.724C124.821 109.828 124.785 109.932 124.747 110.035C124.669 110.255 124.443 110.409 124.251 110.376C122.57 110.088 121.022 109.533 119.662 108.783C119.727 108.698 119.793 108.612 119.856 108.525C121.194 109.256 122.718 109.795 124.373 110.069C124.562 110.1 124.782 109.944 124.856 109.724Z" fill="#103E4A"/>
<path d="M125.361 107.92C125.338 108.024 125.313 108.128 125.288 108.233C123.672 108.051 122.191 107.584 120.906 106.917C120.958 106.826 121.009 106.735 121.058 106.645C122.318 107.295 123.773 107.749 125.361 107.92Z" fill="#103E4A"/>
<path d="M138.596 94.2983L138.322 94.6102L138.385 95.5601L133.294 104.054L131.767 105.545L126.605 116.245C126.295 116.283 125.951 116.324 125.572 116.364L130.188 107.088L132.434 93.2742L133.957 92.4752L133.155 92.0153L131.883 84.9584L133.87 84.5098L135.08 95.6974L131.963 104.136L138.046 94.0216L138.875 89.6505L138.969 90.4886L138.596 94.2983Z" fill="#103E4A"/>
<path d="M127.211 124.407C119.898 124.374 117.144 121.432 117.144 121.432L116.951 120.311C116.951 120.311 119.284 122.836 127.131 123.262L139.712 123.977L138.806 126.41L138.838 140.595L137.736 140.703L137.76 125.069L127.211 124.407Z" fill="#103E4A"/>
<path d="M115.289 136.096L119.661 136.084L119.119 132.932L121.072 137.34L115.289 136.096Z" fill="#103E4A"/>
<path d="M144.314 136.669L143.407 137.695L144.252 138.123L144.216 138.968L142.289 138.127L144.372 135.305L144.314 136.669Z" fill="#103E4A"/>
<path d="M136.955 99.9525L145.648 105.692L157.124 102.935L156.285 98.3754L147.339 99.5192L140.821 93.4629L136.955 99.9525Z" fill="#155263"/>
<path d="M140.821 93.4648L136.955 99.9544L145.648 105.694L157.124 102.937L156.987 102.193L145.901 104.135L139.423 99.5793L141.522 94.1157L140.821 93.4648Z" fill="#103E4A"/>
<path d="M148.752 99.3389L146.086 101.971V98.3535L147.341 99.5195L148.752 99.3389Z" fill="#103E4A"/>
<path d="M157.689 101.428L160.595 100.505C162.641 99.8558 164.27 98.257 164.713 97.25L157.123 98.2653L157.689 101.428Z" fill="#EF8371"/>
<path d="M164.715 97.25C164.272 98.2558 162.642 99.8549 160.597 100.503L157.692 101.427L157.572 100.755L159.659 100.094C161.34 99.5582 162.741 98.382 163.433 97.4206L164.715 97.25Z" fill="#EC6F66"/>
<path d="M156.987 102.193L157.806 102.071L157.124 98.2637L156.285 98.377L156.987 102.193Z" fill="#E8F3F8"/>
</svg>
